<svg xmlns="http://www.w3.org/2000/svg" id="Layer_1" viewBox="0 0 284.3 95"><g id="XMLID_206_"><g id="XMLID_267_"><path id="XMLID_271_" fill="#030202" d="M284.3 20.1v-2.2c-.1-1.6-.1-3.2-.4-4.8-.3-1.6-.7-3.1-1.5-4.5-.7-1.4-1.7-2.7-2.8-3.9-1.1-1.1-2.4-2.1-3.8-2.8-1.5-.7-2.9-1.2-4.5-1.5-1.6-.3-3.2-.4-4.8-.4H17.9c-1.6 0-3.2.1-4.8.4-1.6.3-3.1.8-4.5 1.5-1.4.8-2.7 1.7-3.9 2.8-1.1 1.2-2 2.5-2.8 3.9C1.2 10 .7 11.5.4 13.1c-.3 1.6-.4 3.2-.4 4.8v59.3c0 1.6.1 3.2.4 4.8.3 1.6.7 3.1 1.5 4.5.7 1.4 1.7 2.7 2.8 3.8 1.1 1.1 2.4 2.1 3.8 2.8 1.4.7 2.9 1.2 4.5 1.5 1.6.3 3.2.4 4.8.4h248.6c1.6 0 3.2-.1 4.8-.4 1.6-.3 3.1-.8 4.5-1.5s2.7-1.7 3.8-2.8c1.1-1.1 2.1-2.4 2.8-3.8.7-1.4 1.2-2.9 1.5-4.5.3-1.6.4-3.2.4-4.8V22.7c.1-.9.1-1.8.1-2.6z"/><path id="XMLID_268_" fill="#909295" d="M261.6 2h4.8c1.2 0 2.9.1 4.5.4 1.4.3 2.7.7 4 1.3 1.2.6 2.4 1.5 3.4 2.4 1 1 1.8 2.1 2.4 3.3.6 1.2 1 2.5 1.3 4 .3 1.5.4 3 .4 4.4V77c-.1 1.5-.1 3-.4 4.5-.2 1.4-.7 2.7-1.3 4-.7 1.3-1.5 2.4-2.5 3.4s-2.1 1.8-3.3 2.4c-1.2.6-2.5 1-4 1.3-1.5.3-3.1.4-4.4.4H18c-1.3 0-2.9-.1-4.5-.4-1.5-.3-2.8-.7-4-1.3-1.2-.6-2.4-1.4-3.4-2.5-1-1-1.8-2.1-2.4-3.3-.6-1.2-1-2.5-1.3-4-.3-1.5-.4-3.1-.4-4.4V17.9c0-1.2.1-2.9.4-4.5.3-1.5.7-2.8 1.3-4C4.3 8.1 5.2 7 6.1 6c1-1 2.1-1.8 3.3-2.4 1.2-.6 2.5-1.1 4-1.3 1.7-.2 3.3-.3 4.5-.3h243.7m0-2H17.8c-1.6 0-3.2.1-4.8.4-1.5.3-3 .8-4.4 1.5-1.4.8-2.7 1.7-3.9 2.8-1.1 1.2-2 2.5-2.8 3.9C1.2 10 .7 11.5.4 13.1c-.3 1.6-.4 3.2-.4 4.8v59.3c0 1.6.1 3.2.4 4.8.3 1.6.7 3.1 1.5 4.5.7 1.4 1.7 2.7 2.8 3.8 1.1 1.1 2.4 2.1 3.8 2.8 1.4.7 2.9 1.2 4.5 1.5 1.6.3 3.2.4 4.8.4h248.6c1.6 0 3.2-.1 4.8-.4 1.6-.3 3.1-.8 4.5-1.5s2.7-1.7 3.8-2.8c1.1-1.1 2.1-2.4 2.8-3.8.7-1.4 1.2-2.9 1.5-4.5.3-1.6.4-3.2.4-4.8V17.9c-.1-1.6-.1-3.2-.4-4.8-.3-1.6-.7-3.1-1.5-4.5-.7-1.4-1.7-2.7-2.8-3.9-1.1-1.1-2.4-2.1-3.8-2.8-1.5-.7-2.9-1.2-4.5-1.5-1.6-.3-3.2-.4-4.8-.4h-4.8z"/></g><g id="XMLID_233_" fill="#FFF"><path id="XMLID_264_" d="M89.9 20.7c4.2 0 6.7 2.6 6.7 7 0 4.5-2.4 7.1-6.7 7.1h-5.1V20.7h5.1zm-3 12.2h2.7c3 0 4.7-1.8 4.7-5.1 0-3.2-1.7-5.1-4.7-5.1h-2.7v10.2z"/><path id="XMLID_261_" d="M99 29.6c0-3.4 1.9-5.6 5-5.6s5 2.1 5 5.6c0 3.5-1.9 5.6-5 5.6-3.1-.1-5-2.2-5-5.6zm7.9 0c0-2.3-1-3.7-2.9-3.7-1.8 0-2.9 1.4-2.9 3.7 0 2.3 1 3.7 2.9 3.7 1.9-.1 2.9-1.4 2.9-3.7z"/><path id="XMLID_259_" d="M122.5 34.9h-2.2l-2.2-7.9h-.1l-2.2 7.9h-2.2l-3-10.7h2.1l1.9 8.2h.2l2.2-8.2h2l2.2 8.2h.2l1.9-8.2h2.1l-2.9 10.7z"/><path id="XMLID_257_" d="M127.9 24.2h2v1.7h.2c.5-1.2 1.6-1.9 3.2-1.9 2.4 0 3.7 1.4 3.7 4v6.9h-2.1v-6.4c0-1.7-.7-2.6-2.3-2.6-1.6 0-2.6 1-2.6 2.7v6.3h-2.1V24.2z"/><path id="XMLID_255_" d="M140.4 20h2.1v14.9h-2.1V20z"/><path id="XMLID_252_" d="M145.4 29.6c0-3.4 1.9-5.6 5-5.6s5 2.1 5 5.6c0 3.5-1.9 5.6-5 5.6-3.1-.1-5-2.2-5-5.6zm8 0c0-2.3-1-3.7-2.9-3.7-1.8 0-2.9 1.4-2.9 3.7 0 2.3 1 3.7 2.9 3.7 1.8-.1 2.9-1.4 2.9-3.7z"/><path id="XMLID_249_" d="M157.7 31.9c0-1.9 1.4-3 4-3.2l2.9-.2v-.9c0-1.1-.7-1.8-2.2-1.8-1.2 0-2 .4-2.2 1.2h-2c.2-1.8 1.9-3 4.4-3 2.7 0 4.2 1.3 4.2 3.6v7.3h-2v-1.5h-.2c-.6 1.1-1.8 1.7-3.2 1.7-2.2 0-3.7-1.3-3.7-3.2zm6.9-.9v-.9l-2.6.2c-1.5.1-2.1.6-2.1 1.5 0 1 .8 1.5 2 1.5 1.5 0 2.7-1 2.7-2.3z"/><path id="XMLID_246_" d="M169.5 29.6c0-3.4 1.7-5.5 4.4-5.5 1.5 0 2.7.7 3.3 1.9h.2v-6h2.1v14.9h-2v-1.7h-.2c-.6 1.2-1.9 1.9-3.4 1.9-2.7 0-4.4-2.1-4.4-5.5zm2.2 0c0 2.3 1.1 3.6 2.9 3.6 1.8 0 2.9-1.4 2.9-3.6s-1.1-3.6-2.9-3.6c-1.8-.1-2.9 1.3-2.9 3.6z"/><path id="XMLID_243_" d="M188.2 29.6c0-3.4 1.9-5.6 5-5.6s5 2.1 5 5.6c0 3.5-1.9 5.6-5 5.6-3.1-.1-5-2.2-5-5.6zm7.9 0c0-2.3-1-3.7-2.9-3.7-1.8 0-2.9 1.4-2.9 3.7 0 2.3 1 3.7 2.9 3.7 1.9-.1 2.9-1.4 2.9-3.7z"/><path id="XMLID_241_" d="M201.1 24.2h2v1.7h.2c.5-1.2 1.6-1.9 3.2-1.9 2.4 0 3.7 1.4 3.7 4v6.9h-2.1v-6.4c0-1.7-.7-2.6-2.3-2.6-1.6 0-2.6 1-2.6 2.7v6.3h-2.1V24.2z"/><path id="XMLID_239_" d="M222.2 21.6v2.7h2.3V26h-2.3v5.5c0 1.1.5 1.6 1.5 1.6h.8v1.8c-.3.1-.7.1-1.2.1-2.3 0-3.3-.8-3.3-2.9v-6h-1.7v-1.8h1.7v-2.7h2.2z"/><path id="XMLID_237_" d="M227.4 20h2.1v5.9h.2c.5-1.2 1.7-1.9 3.3-1.9 2.3 0 3.7 1.4 3.7 4v6.9h-2.1v-6.4c0-1.7-.8-2.6-2.3-2.6-1.7 0-2.7 1.1-2.7 2.7v6.2h-2.1V20z"/><path id="XMLID_234_" d="M248.9 32c-.5 1.9-2.2 3.1-4.6 3.1-3.1 0-4.9-2.1-4.9-5.5s1.9-5.6 4.9-5.6c3 0 4.8 2 4.8 5.4v.7h-7.6v.1c.1 1.9 1.2 3.1 2.8 3.1 1.3 0 2.2-.5 2.5-1.3h2.1zm-7.4-3.4h5.4c0-1.7-1.1-2.8-2.6-2.8s-2.7 1.1-2.8 2.8z"/></g><g id="XMLID_229_"><g id="XMLID_230_" fill="#FFF"><path id="XMLID_232_" d="M58.8 48.2c-.1-6.5 5.4-9.7 5.6-9.9-3.1-4.5-7.8-5.1-9.5-5.1-4-.4-7.9 2.4-9.9 2.4-2.1 0-5.2-2.3-8.6-2.3-4.3.1-8.4 2.6-10.6 6.5-4.6 8-1.2 19.6 3.2 26.1 2.2 3.1 4.8 6.7 8.1 6.5 3.3-.1 4.5-2.1 8.5-2.1 3.9 0 5.1 2.1 8.5 2 3.5-.1 5.8-3.2 7.9-6.3 2.5-3.6 3.6-7.2 3.6-7.3.1 0-6.7-2.6-6.8-10.5z"/><path id="XMLID_231_" d="M52.4 29c1.8-2.2 3-5.2 2.6-8.3-2.6.1-5.8 1.8-7.6 3.9-1.6 1.9-3.1 5-2.7 8 2.8.3 5.8-1.4 7.7-3.6z"/></g></g><g id="XMLID_207_" fill="#FFF"><path id="XMLID_226_" d="M100.5 64.5H89.2l-2.7 8h-4.8L92.4 43h4.9L108 72.4h-4.8l-2.7-7.9zm-10.1-3.7h8.9l-4.4-12.9h-.1l-4.4 12.9z"/><path id="XMLID_223_" d="M131 61.7c0 6.7-3.6 11-9 11-3.1 0-5.5-1.4-6.8-3.8h-.1v10.7h-4.4V50.9h4.3v3.6h.1c1.2-2.3 3.8-3.8 6.8-3.8 5.5 0 9.1 4.3 9.1 11zm-4.5 0c0-4.4-2.3-7.2-5.7-7.2-3.4 0-5.6 2.9-5.6 7.2 0 4.3 2.3 7.2 5.6 7.2 3.5 0 5.7-2.8 5.7-7.2z"/><path id="XMLID_220_" d="M154.7 61.7c0 6.7-3.6 11-9 11-3.1 0-5.5-1.4-6.8-3.8h-.1v10.7h-4.4V50.9h4.3v3.6h.1c1.2-2.3 3.8-3.8 6.8-3.8 5.5 0 9.1 4.3 9.1 11zm-4.5 0c0-4.4-2.3-7.2-5.7-7.2-3.4 0-5.6 2.9-5.6 7.2 0 4.3 2.3 7.2 5.6 7.2 3.4 0 5.7-2.8 5.7-7.2z"/><path id="XMLID_218_" d="M170.4 64.2c.3 2.9 3.2 4.8 7.1 4.8 3.7 0 6.4-1.9 6.4-4.6 0-2.3-1.6-3.7-5.4-4.6l-3.8-.9c-5.4-1.3-7.9-3.8-7.9-8 0-5.1 4.4-8.6 10.7-8.6 6.2 0 10.5 3.5 10.7 8.6h-4.5c-.3-2.9-2.7-4.7-6.3-4.7s-6 1.8-6 4.4c0 2.1 1.6 3.3 5.4 4.3l3.3.8c6.1 1.4 8.6 3.9 8.6 8.2 0 5.5-4.4 9-11.4 9-6.5 0-11-3.4-11.2-8.7h4.3z"/><path id="XMLID_216_" d="M198 45.8v5.1h4.1v3.5H198v11.9c0 1.8.8 2.7 2.6 2.7.5 0 1.2-.1 1.5-.1v3.5c-.5.1-1.5.2-2.5.2-4.4 0-6.1-1.6-6.1-5.8V54.4h-3.1v-3.5h3.1v-5.1h4.5z"/><path id="XMLID_213_" d="M204.5 61.7c0-6.8 4-11 10.2-11 6.2 0 10.2 4.3 10.2 11 0 6.8-3.9 11-10.2 11-6.3 0-10.2-4.2-10.2-11zm15.9 0c0-4.6-2.1-7.4-5.7-7.4s-5.7 2.8-5.7 7.4c0 4.7 2.1 7.4 5.7 7.4 3.5 0 5.7-2.7 5.7-7.4z"/><path id="XMLID_211_" d="M228.5 50.9h4.2v3.7h.1c.7-2.4 2.6-3.9 5.2-3.9.6 0 1.2.1 1.5.2V55c-.3-.1-1.1-.3-2-.3-2.8 0-4.6 1.9-4.6 4.9v12.8h-4.4V50.9z"/><path id="XMLID_208_" d="M259.9 66.1c-.6 3.9-4.4 6.6-9.3 6.6-6.3 0-10.1-4.2-10.1-10.9s3.9-11.1 10-11.1c6 0 9.7 4.1 9.7 10.6v1.5H245v.3c0 3.7 2.3 6.1 5.8 6.1 2.5 0 4.4-1.2 5-3h4.1zm-15-6.4h10.8c-.1-3.3-2.2-5.5-5.3-5.5-3 .1-5.2 2.3-5.5 5.5z"/></g></g></svg>