<svg width="16" height="16" viewBox="0 0 16 16" fill="none" xmlns="http://www.w3.org/2000/svg">
<g clip-path="url(#clip0_3143_8670)">
<path d="M5.99249 9.99243L9.99249 5.99243" stroke="#FF6700" stroke-linecap="round" stroke-linejoin="round"/>
<path d="M6.32583 6.6591C6.50992 6.6591 6.65916 6.50986 6.65916 6.32576C6.65916 6.14167 6.50992 5.99243 6.32583 5.99243C6.14173 5.99243 5.99249 6.14167 5.99249 6.32576C5.99249 6.50986 6.14173 6.6591 6.32583 6.6591Z" fill="#FF6700" stroke="#FF6700" stroke-linecap="round" stroke-linejoin="round"/>
<path d="M9.65917 9.99247C9.84326 9.99247 9.9925 9.84323 9.9925 9.65914C9.9925 9.47504 9.84326 9.32581 9.65917 9.32581C9.47507 9.32581 9.32584 9.47504 9.32584 9.65914C9.32584 9.84323 9.47507 9.99247 9.65917 9.99247Z" fill="#FF6700" stroke="#FF6700" stroke-linecap="round" stroke-linejoin="round"/>
<path d="M3.32583 4.79249C3.32583 4.40351 3.48035 4.03046 3.75541 3.75541C4.03046 3.48035 4.40351 3.32583 4.79249 3.32583H5.45916C5.84643 3.32561 6.21789 3.17223 6.4925 2.89916L6.95916 2.43249C7.09546 2.29543 7.25751 2.18666 7.43599 2.11243C7.61447 2.03821 7.80586 2 7.99916 2C8.19246 2 8.38385 2.03821 8.56233 2.11243C8.74081 2.18666 8.90286 2.29543 9.03916 2.43249L9.50583 2.89916C9.78044 3.17223 10.1519 3.32561 10.5392 3.32583H11.2058C11.5948 3.32583 11.9679 3.48035 12.2429 3.75541C12.518 4.03046 12.6725 4.40351 12.6725 4.79249V5.45916C12.6727 5.84643 12.8261 6.21789 13.0992 6.4925L13.5658 6.95916C13.7029 7.09546 13.8117 7.25751 13.8859 7.43599C13.9601 7.61447 13.9983 7.80586 13.9983 7.99916C13.9983 8.19246 13.9601 8.38385 13.8859 8.56233C13.8117 8.74081 13.7029 8.90286 13.5658 9.03916L13.0992 9.50583C12.8261 9.78044 12.6727 10.1519 12.6725 10.5392V11.2058C12.6725 11.5948 12.518 11.9679 12.2429 12.2429C11.9679 12.518 11.5948 12.6725 11.2058 12.6725H10.5392C10.1519 12.6727 9.78044 12.8261 9.50583 13.0992L9.03916 13.5658C8.90286 13.7029 8.74081 13.8117 8.56233 13.8859C8.38385 13.9601 8.19246 13.9983 7.99916 13.9983C7.80586 13.9983 7.61447 13.9601 7.43599 13.8859C7.25751 13.8117 7.09546 13.7029 6.95916 13.5658L6.4925 13.0992C6.21789 12.8261 5.84643 12.6727 5.45916 12.6725H4.79249C4.40351 12.6725 4.03046 12.518 3.75541 12.2429C3.48035 11.9679 3.32583 11.5948 3.32583 11.2058V10.5392C3.32561 10.1519 3.17223 9.78044 2.89916 9.50583L2.43249 9.03916C2.29543 8.90286 2.18666 8.74081 2.11243 8.56233C2.03821 8.38385 2 8.19246 2 7.99916C2 7.80586 2.03821 7.61447 2.11243 7.43599C2.18666 7.25751 2.29543 7.09546 2.43249 6.95916L2.89916 6.4925C3.17223 6.21789 3.32561 5.84643 3.32583 5.45916V4.79249" stroke="#FF6700" stroke-linecap="round" stroke-linejoin="round"/>
</g>
<defs>
<clipPath id="clip0_3143_8670">
<rect width="16" height="16" fill="white"/>
</clipPath>
</defs>
</svg>
