<svg data-name="back arrow" xmlns="http://www.w3.org/2000/svg" width="24" height="23" viewBox="0 0 24 23">
    <g data-name="Iconly/Light-outline/Arrow - Left">
        <path data-name="Arrow - Left" d="M7.273 17.969H7.232a.832.832 0 0 1-.315-.195l-6.67-6.6A.809.809 0 0 1 .245 10a.839.839 0 0 1 1.081-.077l.092.077 5.252 5.2V.818A.831.831 0 0 1 8.323.707l.007.111V15.2l5.251-5.2a.839.839 0 0 1 1.175 0 .809.809 0 0 1 .083 1.065l-.08.092-6.669 6.6A.835.835 0 0 1 7.5 18a.844.844 0 0 1-.227-.031z" style="fill:#200e32" transform="rotate(90 8.5 12.5)"/>
    </g>
    <path data-name="Rectangle 5789" style="fill:none" d="M0 0h24v23H0z"/>
</svg>
