<svg width="48" height="49" viewBox="0 0 48 49" fill="none" xmlns="http://www.w3.org/2000/svg">
<path d="M46.75 24.625C46.75 37.5347 36.2847 48 23.375 48C10.4653 48 0 37.5347 0 24.625C0 11.7153 10.4653 4 23.375 4C36.2847 4 46.75 11.7153 46.75 24.625Z" fill="#D8ECFE"/>
<g clip-path="url(#clip0_94_4147)">
<path fill-rule="evenodd" clip-rule="evenodd" d="M9.13805 37.1429L3.99214 39.0708C3.80177 39.6799 3.69885 40.3303 3.69885 41.0037C3.69885 44.5767 6.59854 47.4736 10.1749 47.4736C13.4554 47.4736 16.1647 45.0368 16.5918 41.8751L9.13805 37.1429Z" fill="#838383"/>
<path fill-rule="evenodd" clip-rule="evenodd" d="M34.2628 39.5051C34.232 39.5051 34.2037 39.5051 34.1754 39.5051C34.0596 39.9858 34.0004 40.487 34.0004 41.0037C34.0004 44.5767 36.9001 47.4736 40.4764 47.4736C44.0528 47.4736 46.9525 44.5767 46.9525 41.0037C46.9525 40.487 46.8907 39.9858 46.7775 39.5051L40.9858 38.0785L34.2628 39.5051Z" fill="#838383"/>
<path fill-rule="evenodd" clip-rule="evenodd" d="M22.6099 30.6858L16.7693 36.9964C17.0009 37.531 17.4435 39.0888 16.7565 39.081L16.3577 39.0759C16.3602 39.0785 16.3602 39.081 16.3602 39.0837L21.097 40.6311C27.9976 40.3252 25.6151 40.4743 30.6735 35.7472L31.4968 30.6859L27.1331 28.2234L22.6099 30.6858Z" fill="#595959"/>
<path fill-rule="evenodd" clip-rule="evenodd" d="M31.4969 30.6858H22.6099L20.7085 32.7371H26.176C27.6091 32.7371 27.5576 32.6729 26.7395 34.0532L25.3089 36.1866C25.8981 36.3717 26.3715 36.8267 26.5696 37.4436L29.7214 33.1226L31.4969 30.6858Z" fill="#FF9494"/>
<path fill-rule="evenodd" clip-rule="evenodd" d="M10.337 32.9838C7.13115 32.8501 3.87902 34.3488 3.16368 36.9964C2.93728 37.837 2.75455 39.1376 3.99214 39.0708H7.57113H9.05314L10.6175 36.9964L10.337 32.9838Z" fill="#FE636E"/>
<path fill-rule="evenodd" clip-rule="evenodd" d="M16.7667 36.9964C16.0926 35.3873 14.855 34.2973 13.391 33.6624L11.9451 36.3717L12.1586 39.0708H12.7787H16.0104L16.3577 39.0759L16.7566 39.081C17.4435 39.0887 17.0009 37.531 16.7667 36.9964Z" fill="#FE636E"/>
<path fill-rule="evenodd" clip-rule="evenodd" d="M24.7018 36.0941C24.1434 36.0941 23.6392 36.3229 23.2789 36.6904C22.9521 37.022 22.7412 37.4667 22.7102 37.9603C22.6845 38.369 22.7823 38.7545 22.9727 39.0836H24.3543C25.2034 39.0836 25.4915 38.9268 25.9495 38.2971L26.5696 37.4436C26.3047 36.6262 25.5663 36.0941 24.7018 36.0941Z" fill="#838383"/>
<path fill-rule="evenodd" clip-rule="evenodd" d="M41.8221 22.7482H39.4215C38.6985 22.7482 38.0399 23.0258 37.5433 23.4782L36.3212 25.7942L37.5433 27.6012C38.0399 28.0536 38.6985 28.3312 39.4215 28.3312H41.8221C42.2929 28.3312 42.6788 27.9457 42.6788 27.4753V23.6041C42.6789 23.1337 42.293 22.7482 41.8221 22.7482Z" fill="#FE636E"/>
<path fill-rule="evenodd" clip-rule="evenodd" d="M38.5364 35.7924L36.1102 34.102C34.8288 34.8397 33.8074 35.927 33.2954 37.3407C32.9944 38.1787 32.7551 39.4536 34.1754 39.505H34.2628H37.5999H38.7038L38.5364 35.7924Z" fill="#FE636E"/>
<path fill-rule="evenodd" clip-rule="evenodd" d="M47.1943 36.31C45.3418 33.4697 41.683 32.516 38.5364 33.1869L38.332 36.299L41.4952 39.5052H43.3529H46.7774C46.9344 39.5052 47.0707 39.4924 47.1942 39.4666C48.2568 39.2378 48.0716 38.0914 47.7449 37.3408C47.5854 36.9733 47.4001 36.6314 47.1943 36.31Z" fill="#FE636E"/>
<path fill-rule="evenodd" clip-rule="evenodd" d="M10.3371 32.9838C7.13116 32.8501 3.87903 34.3488 3.16369 36.9964C2.97587 37.6955 2.81889 38.7135 3.48273 38.9962C4.6174 36.7291 6.9639 35.1688 9.67322 35.1688C9.74265 35.1688 9.80963 35.1713 9.87651 35.174L10.0103 34.5365L10.3371 32.9838Z" fill="#FB2A39"/>
<path fill-rule="evenodd" clip-rule="evenodd" d="M16.7282 36.9013C16.0437 35.3436 14.8267 34.2845 13.391 33.6625L13.0411 35.1996L12.8713 35.9502C14.1861 36.6366 15.2539 37.7341 15.9022 39.0708H16.0104L16.3577 39.076L16.7565 39.0811C17.4435 39.0888 17.001 37.531 16.7668 36.9964C16.7539 36.963 16.7411 36.9321 16.7282 36.9013Z" fill="#FB2A39"/>
<path fill-rule="evenodd" clip-rule="evenodd" d="M47.1943 36.31C46.2475 34.8603 44.8298 33.9015 43.2526 33.4002C41.7397 32.9196 40.0776 32.8579 38.5364 33.1869L38.6882 33.5133L38.7293 33.5982C40.3297 33.629 41.9275 34.066 43.2525 34.9374C44.027 35.4489 44.7062 36.1095 45.2388 36.9243C45.4447 37.2431 45.6299 37.5875 45.7895 37.9551C45.9928 38.4229 46.142 39.0476 45.9645 39.5051H46.7775C46.9345 39.5051 47.0708 39.4923 47.1943 39.4665C48.2569 39.2378 48.0717 38.0913 47.7449 37.3407C47.5854 36.9733 47.4001 36.6314 47.1943 36.31Z" fill="#FB2A39"/>
<path fill-rule="evenodd" clip-rule="evenodd" d="M36.1102 34.102C35.5107 34.4464 34.9703 34.8679 34.5098 35.3615L34.9472 36.2689L36.3752 39.2455L36.5012 39.5051H37.5998H38.7036L38.2791 38.6209L36.8486 35.6416L36.2105 34.3101L36.1102 34.102Z" fill="#FB2A39"/>
<path fill-rule="evenodd" clip-rule="evenodd" d="M41.8221 22.7482H40.2938C40.7647 22.7482 41.1506 23.1337 41.1506 23.6041V27.4753C41.1506 27.9457 40.7647 28.3312 40.2938 28.3312H41.8222C42.293 28.3312 42.6789 27.9457 42.6789 27.4753V23.6041C42.6789 23.1337 42.293 22.7482 41.8221 22.7482Z" fill="#FB2A39"/>
<path fill-rule="evenodd" clip-rule="evenodd" d="M39.5141 41.1939L38.7705 39.6465L38.7037 39.5051H37.5998C37.3657 39.9549 37.2319 40.4639 37.2319 41.0037C37.2319 42.7928 38.6856 44.2452 40.4764 44.2452C42.2672 44.2452 43.7183 42.7928 43.7183 41.0037C43.7183 40.4639 43.5871 39.9549 43.353 39.5051H41.4953L41.5597 39.6465L41.6986 39.9447C42.5013 41.6592 40.1033 42.4201 39.5141 41.1939Z" fill="#B7B7B7"/>
<path fill-rule="evenodd" clip-rule="evenodd" d="M45.9645 39.5051H44.5854C44.7012 39.9858 44.7604 40.487 44.7604 41.0037C44.7604 44.204 42.4345 46.8618 39.3804 47.3811C39.7354 47.4428 40.1034 47.4736 40.4765 47.4736C44.0528 47.4736 46.9525 44.5767 46.9525 41.0037C46.9525 40.487 46.8907 39.9858 46.7775 39.5051H45.9645Z" fill="#595959"/>
<path fill-rule="evenodd" clip-rule="evenodd" d="M16.5919 41.8751L14.5412 41.8776C14.1578 44.7026 11.9477 46.9492 9.13806 47.3913C9.47512 47.4452 9.82247 47.4735 10.175 47.4735C13.4554 47.4736 16.1647 45.0368 16.5919 41.8751Z" fill="#595959"/>
<path fill-rule="evenodd" clip-rule="evenodd" d="M9.05319 39.0708H7.57118C7.16978 39.6106 6.93054 40.2789 6.93054 41.0037C6.93054 42.7928 8.38425 44.2452 10.175 44.2452C11.6622 44.2452 12.9177 43.2427 13.2986 41.8777L9.05319 39.0708Z" fill="#B7B7B7"/>
<path d="M30.2186 32.4383L30.3894 33.318L29.2223 33.8073H25.203C24.8254 33.8073 24.5194 33.5003 24.5194 33.1228C24.5194 32.7443 24.8254 32.4382 25.203 32.4382H29.7211C29.8714 32.4383 30.2186 32.4383 30.2186 32.4383Z" fill="#838383"/>
<path d="M36.0179 19.009C35.7546 19.009 35.5036 18.8562 35.3909 18.5997L33.9063 15.2195C33.7544 14.8734 33.9117 14.4696 34.2578 14.3176C34.6037 14.1655 35.0076 14.3229 35.1596 14.669L36.8967 18.6203C37.0487 18.9664 36.7415 19.1313 36.3954 19.2833C36.3059 19.3226 36.1097 19.009 36.0179 19.009Z" fill="#838383"/>
<path fill-rule="evenodd" clip-rule="evenodd" d="M34.8722 30.6862V31.4314L27.9664 40.4563C27.0121 41.8697 25.9473 41.8697 25.6177 41.8697L16.5915 41.8752L13.2984 41.8779L10.6074 41.8806L10.7333 40.0479L12.1557 39.0836H24.3546C25.203 39.0836 25.4918 38.927 25.95 38.2967L26.5692 37.4437L29.2221 33.8073L29.721 33.1228L30.1239 32.5695L31.4966 30.6861L33.1736 29.5L34.8722 30.6862Z" fill="#FFBF00"/>
<path fill-rule="evenodd" clip-rule="evenodd" d="M34.5329 12.1732L31.1083 11.5358C30.6735 11.4561 30.3055 11.8982 30.3055 12.3403V14.1423C30.3055 14.5844 30.6657 14.9443 31.1083 14.9443H34.5329C34.9754 14.9443 35.3383 14.5844 35.3383 14.1423V12.9753C35.3383 12.5331 34.9678 12.2529 34.5329 12.1732Z" fill="#FE636E"/>
<path fill-rule="evenodd" clip-rule="evenodd" d="M35.3383 12.9752C35.3383 12.5332 34.9678 12.253 34.5329 12.1732L33.5655 11.9933C33.7868 12.1527 33.936 12.3969 33.936 12.7156V14.0342C33.936 14.5355 33.5732 14.9442 33.1332 14.9442H34.5328C34.9754 14.9442 35.3382 14.5843 35.3382 14.1422V12.9752H35.3383Z" fill="#FB2A39"/>
<path fill-rule="evenodd" clip-rule="evenodd" d="M8.86785 39.9447C8.62598 41.3558 9.68093 42.0293 10.6098 41.834C11.0806 41.7337 11.518 41.4098 11.7341 40.8443C11.7779 40.7312 11.8139 40.6052 11.8396 40.4716C12.5832 37.2122 13.3268 33.9503 14.0704 30.6857L12.4165 29.0019L10.8233 30.6857C10.1723 33.773 9.51886 36.8601 8.86785 39.9447Z" fill="#FFD659"/>
<path fill-rule="evenodd" clip-rule="evenodd" d="M14.0703 30.6858H10.8233C10.5068 32.1818 10.193 33.6779 9.87646 35.1739C10.9545 35.2047 11.9708 35.4797 12.8713 35.9501C13.2702 34.1945 13.6715 32.4414 14.0703 30.6858Z" fill="#FFBF00"/>
<path fill-rule="evenodd" clip-rule="evenodd" d="M19.911 25.7582H9.08918C7.98281 25.7017 7.52227 24.2417 6.43137 24.2365L5.19633 24.2416C4.30099 24.1876 3.25122 24.5526 3.25122 25.951V26.627V28.8171C3.25122 29.8401 3.98704 30.6858 5.38679 30.6858H10.8234H14.0705H22.61L25.0106 28.2233L22.61 25.7582H19.911Z" fill="#838383"/>
<path fill-rule="evenodd" clip-rule="evenodd" d="M20.4126 25.7582H22.6099V30.6858H20.4126V25.7582Z" fill="#595959"/>
<path fill-rule="evenodd" clip-rule="evenodd" d="M34.8726 26.3083C34.8726 22.6299 24.7429 22.1569 22.61 25.7581V30.6857H31.4969H34.8726L36.0175 28.3311L34.8726 26.3083Z" fill="#FE636E"/>
<path fill-rule="evenodd" clip-rule="evenodd" d="M34.8726 26.3083C34.8726 23.1003 27.1718 22.3317 23.7858 24.5732C27.5088 23.6504 32.598 24.6452 32.598 27.2542V30.6858H34.8726V30.2102V26.3083Z" fill="#FB2A39"/>
<path fill-rule="evenodd" clip-rule="evenodd" d="M36.0175 18.3244L31.5097 18.309C29.7395 18.3012 29.7292 20.7869 31.4866 20.8897L34.8726 21.0876V26.3083V30.2102V30.6858V31.4312V31.5263L36.2105 34.3102L36.8486 35.6417L38.2791 38.6209L38.7705 39.6465L39.5141 41.1939C40.1033 42.4201 42.5012 41.6592 41.6985 39.9447L41.5596 39.6464L40.6822 37.77L39.2233 34.6545L38.6881 33.5133L37.5431 31.0636V27.6011V23.4781V19.9308C37.5431 19.6481 37.4763 19.4065 37.3656 19.2111C37.1393 18.692 36.6196 18.327 36.0175 18.3244Z" fill="#FFD659"/>
<path fill-rule="evenodd" clip-rule="evenodd" d="M37.3657 19.2112C37.1393 18.6919 36.6195 18.3269 36.0175 18.3244L34.8031 18.3218C35.4001 18.3244 35.9172 18.6894 36.1436 19.2061C36.2543 19.404 36.3211 19.6431 36.3211 19.9258V23.4731V27.5961V31.0586L37.4584 33.4902L37.4686 33.5083L38.0013 34.6495L39.4602 37.765L40.2758 39.5052L40.3401 39.644L40.4765 39.9396C40.8702 40.7775 40.4971 41.3893 39.9439 41.6515C40.8239 42.1347 42.365 41.3688 41.6986 39.9447L41.5597 39.6465L41.4954 39.505L40.6823 37.77L39.2234 34.6545L38.7294 33.5981L38.6882 33.5133L38.5364 33.1868L37.5433 31.0637V27.6012V23.4782V19.9309C37.5433 19.6482 37.4764 19.4066 37.3657 19.2112Z" fill="#FFBF00"/>
</g>
<g clip-path="url(#clip1_94_4147)">
<path d="M23 14C26.3137 14 29 11.3137 29 8C29 4.68629 26.3137 2 23 2C19.6863 2 17 4.68629 17 8C17 11.3137 19.6863 14 23 14Z" fill="#42BE65" stroke="#42BE65" stroke-width="1.5"/>
<path d="M21 8.00001L22.3333 9.33334L25 6.66667" stroke="white" stroke-linecap="round" stroke-linejoin="round"/>
</g>
<g filter="url(#filter0_f_94_4147)">
<line x1="11" y1="47.5" x2="40" y2="47.5" stroke="#AAA2A2"/>
</g>
<defs>
<filter id="filter0_f_94_4147" x="10" y="46" width="31" height="3" filterUnits="userSpaceOnUse" color-interpolation-filters="sRGB">
<feFlood flood-opacity="0" result="BackgroundImageFix"/>
<feBlend mode="normal" in="SourceGraphic" in2="BackgroundImageFix" result="shape"/>
<feGaussianBlur stdDeviation="0.5" result="effect1_foregroundBlur_94_4147"/>
</filter>
<clipPath id="clip0_94_4147">
<rect width="45" height="40.5176" fill="white" transform="translate(3 7)"/>
</clipPath>
<clipPath id="clip1_94_4147">
<rect width="16" height="16" fill="white" transform="translate(15)"/>
</clipPath>
</defs>
</svg>
