<svg width="24" height="24" viewBox="0 0 24 24" fill="none" xmlns="http://www.w3.org/2000/svg">
<g clip-path="url(#clip0_49_23940)">
<path d="M12.0093 -1.09864e-06C7.84247 -0.0054386 4.44722 3.38526 4.44727 7.55208C4.44731 10.3221 5.93888 12.7433 8.16248 14.0575C8.55731 14.2908 8.79633 14.7185 8.79633 15.1772V17.0167C8.86941 16.9861 8.94961 16.9691 9.03375 16.9691H14.9648C15.0489 16.9691 15.1291 16.9861 15.2022 17.0167V15.1771C15.2022 14.7131 15.4501 14.2867 15.8491 14.0497C18.0655 12.7338 19.5512 10.3166 19.5512 7.55203C19.5512 3.38447 16.1755 0.0054364 12.0093 -1.09864e-06Z" fill="#FBD868"/>
<path d="M10.7923 15.1772C10.7923 14.7186 10.5533 14.2908 10.1584 14.0575C7.93481 12.7433 6.44325 10.3221 6.4432 7.55208C6.44316 3.72633 9.30548 0.55528 12.9991 0.0659051C12.6752 0.0230614 12.3449 0.000467651 12.0093 -1.09855e-06C7.84252 -0.0054386 4.44722 3.38522 4.44727 7.55208C4.44731 10.3221 5.93888 12.7433 8.16248 14.0575C8.55736 14.2908 8.79633 14.7186 8.79633 15.1772V17.0167C8.86941 16.9861 8.94961 16.9691 9.03375 16.9691H10.7923V15.1772Z" fill="#F9C158"/>
<path d="M12.9452 17.3313C12.7451 17.3313 12.583 17.1691 12.583 16.9691V13.7279C12.583 13.4022 12.6927 13.0808 12.8918 12.823L13.41 12.1521C13.5117 12.0204 13.5677 11.8563 13.5677 11.69V8.30747C13.5677 8.10745 13.7299 7.94531 13.9299 7.94531C14.1299 7.94531 14.292 8.10745 14.292 8.30747V11.69C14.292 12.0157 14.1823 12.337 13.9833 12.5948L13.465 13.2658C13.3633 13.3975 13.3073 13.5615 13.3073 13.7279V16.9691C13.3073 17.1691 13.1452 17.3313 12.9452 17.3313Z" fill="#FFB640"/>
<path d="M11.0538 17.3313C10.8538 17.3313 10.6917 17.1691 10.6917 16.9691V13.7279C10.6917 13.5616 10.6356 13.3975 10.534 13.2658L10.0157 12.5948C9.8166 12.3371 9.70691 12.0157 9.70691 11.69V8.30747C9.70691 8.10745 9.86905 7.94531 10.0691 7.94531C10.2691 7.94531 10.4312 8.10745 10.4312 8.30747V11.69C10.4312 11.8563 10.4872 12.0204 10.5889 12.152L11.1072 12.823C11.3063 13.0808 11.416 13.4022 11.416 13.7279V16.9691C11.416 17.1691 11.2538 17.3313 11.0538 17.3313Z" fill="#FFB640"/>
<path d="M17.268 6.07331C16.8761 4.61282 15.8692 3.39164 14.5055 2.72297C14.326 2.63489 14.2518 2.4179 14.3398 2.23837C14.4278 2.05879 14.6449 1.98464 14.8244 2.07262C16.3758 2.83336 17.5215 4.22315 17.9676 5.88557C18.0194 6.07875 17.9048 6.2774 17.7116 6.32925C17.5186 6.38109 17.3199 6.26662 17.268 6.07331Z" fill="#FFEAC8"/>
<path d="M10.5372 22.2721V22.5375C10.5372 23.3418 11.1954 24 11.9997 24C12.8041 24 13.4622 23.3419 13.4622 22.5375V22.2721H10.5372Z" fill="#8479C2"/>
<path d="M11.8465 22.5375V22.2721H10.5372V22.5375C10.5372 23.3418 11.1954 24 11.9997 24C12.2347 24 12.457 23.9435 12.6543 23.8439C12.1764 23.6026 11.8465 23.1068 11.8465 22.5375Z" fill="#6E60B8"/>
<path d="M14.2924 9.0713H9.70713C9.50711 9.0713 9.34497 8.90916 9.34497 8.70914C9.34497 8.50913 9.50711 8.34698 9.70713 8.34698H14.2924C14.4924 8.34698 14.6545 8.50913 14.6545 8.70914C14.6545 8.90916 14.4924 9.0713 14.2924 9.0713Z" fill="#FEC458"/>
<path d="M2.69105 7.72083H1.44516C1.24515 7.72083 1.08301 7.55869 1.08301 7.35867C1.08301 7.15865 1.24515 6.99651 1.44516 6.99651H2.69105C2.89107 6.99651 3.05321 7.15865 3.05321 7.35867C3.05321 7.55864 2.89107 7.72083 2.69105 7.72083Z" fill="#FEC458"/>
<path d="M3.04703 5.42254L1.88219 4.98046C1.69521 4.9095 1.60113 4.70034 1.6721 4.51336C1.74311 4.32637 1.95218 4.23239 2.13921 4.30326L3.30405 4.74534C3.49103 4.81631 3.58511 5.02546 3.51414 5.21245C3.44322 5.39929 3.23425 5.49346 3.04703 5.42254Z" fill="#FEC458"/>
<path d="M1.6721 10.2039C1.60113 10.017 1.69521 9.8078 1.88219 9.73683L3.04703 9.29475C3.23393 9.22378 3.44318 9.31782 3.51414 9.50485C3.58511 9.69183 3.49103 9.90099 3.30405 9.97196L2.13921 10.414C1.95218 10.485 1.74311 10.391 1.6721 10.2039Z" fill="#FEC458"/>
<path d="M22.5543 7.72083H21.3084C21.1084 7.72083 20.9463 7.55869 20.9463 7.35867C20.9463 7.15865 21.1084 6.99651 21.3084 6.99651H22.5543C22.7544 6.99651 22.9165 7.15865 22.9165 7.35867C22.9165 7.55864 22.7544 7.72083 22.5543 7.72083Z" fill="#FEC458"/>
<path d="M20.4857 5.21241C20.4147 5.02542 20.5088 4.81626 20.6958 4.7453L21.8606 4.30322C22.0475 4.2323 22.2568 4.32628 22.3277 4.51331C22.3987 4.7003 22.3046 4.90945 22.1176 4.98042L20.9529 5.42255C20.7658 5.49347 20.5567 5.39944 20.4857 5.21241Z" fill="#FEC458"/>
<path d="M21.8606 10.4141L20.6958 9.972C20.5088 9.90103 20.4147 9.69187 20.4857 9.50489C20.5567 9.3179 20.7658 9.22382 20.9528 9.29479L22.1176 9.73687C22.3046 9.80784 22.3987 10.017 22.3277 10.204C22.2568 10.3908 22.0478 10.485 21.8606 10.4141Z" fill="#FEC458"/>
<path d="M14.4829 20.4924H9.51712C9.17058 20.4924 8.88867 20.7743 8.88867 21.1208V21.6557C8.88867 22.0022 9.17058 22.2841 9.51712 22.2841H14.4829C14.8294 22.2841 15.1113 22.0022 15.1113 21.6557V21.1208C15.1113 20.7743 14.8294 20.4924 14.4829 20.4924Z" fill="#F5F5F5"/>
<path d="M14.4829 21.3883H9.51712C9.23334 21.3883 8.99316 21.1991 8.91539 20.9404C8.89819 20.9976 8.88867 21.0581 8.88867 21.1208V21.6558C8.88867 22.0023 9.17058 22.2842 9.51712 22.2842H14.4829C14.8294 22.2842 15.1113 22.0023 15.1113 21.6558V21.1208C15.1113 21.0581 15.1018 20.9976 15.0846 20.9404C15.0068 21.1991 14.7667 21.3883 14.4829 21.3883Z" fill="#DFDCDF"/>
<path d="M14.9657 18.7247H9.03466C8.68816 18.7247 8.40625 19.0066 8.40625 19.3531V19.8881C8.40625 20.2346 8.68816 20.5165 9.03466 20.5165H14.9657C15.3123 20.5165 15.5942 20.2346 15.5942 19.8881V19.3531C15.5942 19.0066 15.3123 18.7247 14.9657 18.7247Z" fill="#F5F5F5"/>
<path d="M14.9648 19.6207H9.03373C8.74995 19.6207 8.50976 19.4315 8.43199 19.1727C8.41479 19.2299 8.40527 19.2904 8.40527 19.3531V19.8881C8.40527 20.2346 8.68718 20.5165 9.03368 20.5165H14.9647C15.3113 20.5165 15.5932 20.2346 15.5932 19.8881V19.3531C15.5932 19.2904 15.5837 19.2299 15.5665 19.1727C15.4887 19.4315 15.2486 19.6207 14.9648 19.6207Z" fill="#DFDCDF"/>
<path d="M14.9657 16.957H9.03466C8.68816 16.957 8.40625 17.2389 8.40625 17.5855V18.1204C8.40625 18.4669 8.68816 18.7488 9.03466 18.7488H14.9657C15.3123 18.7488 15.5942 18.4669 15.5942 18.1204V17.5855C15.5942 17.2389 15.3123 16.957 14.9657 16.957Z" fill="#F5F5F5"/>
<path d="M14.9648 17.853H9.03373C8.74995 17.853 8.50976 17.6638 8.43199 17.405C8.41479 17.4622 8.40527 17.5228 8.40527 17.5855V18.1204C8.40527 18.4669 8.68718 18.7488 9.03368 18.7488H14.9647C15.3113 18.7488 15.5932 18.4669 15.5932 18.1204V17.5855C15.5932 17.5227 15.5837 17.4622 15.5665 17.405C15.4887 17.6638 15.2486 17.853 14.9648 17.853Z" fill="#DFDCDF"/>
</g>
<defs>
<clipPath id="clip0_49_23940">
<rect width="24" height="24" fill="white"/>
</clipPath>
</defs>
</svg>
