<svg width="24" height="24" viewBox="0 0 24 24" fill="none" xmlns="http://www.w3.org/2000/svg">
<g clip-path="url(#clip0_45_4169)">
<path d="M12 2V22" stroke="#012F47" stroke-width="1.5" stroke-linecap="round" stroke-linejoin="round"/>
<path d="M12 19.5H6C5.60218 19.5 5.22064 19.3025 4.93934 18.9508C4.65804 18.5992 4.5 18.1223 4.5 17.625V6.375C4.5 5.87772 4.65804 5.40081 4.93934 5.04917C5.22064 4.69754 5.60218 4.5 6 4.5H12" stroke="#012F47" stroke-width="1.5" stroke-linecap="round" stroke-linejoin="round"/>
<path d="M15 4.5H18C18.3978 4.5 18.7794 4.69754 19.0607 5.04917C19.342 5.40081 19.5 5.87772 19.5 6.375V17.625C19.5 18.1223 19.342 18.5992 19.0607 18.9508C18.7794 19.3025 18.3978 19.5 18 19.5H15" stroke="#012F47" stroke-width="1.5" stroke-linecap="round" stroke-linejoin="round"/>
</g>
<defs>
<clipPath id="clip0_45_4169">
<rect width="24" height="24" fill="white"/>
</clipPath>
</defs>
</svg>
