<svg width="48" height="48" viewBox="0 0 48 48" fill="none" xmlns="http://www.w3.org/2000/svg">
<g clip-path="url(#clip0_49_23875)">
<path d="M24 2.0625C10.7451 2.0625 0 12.3459 0 25.0313C0 28.2829 0.707167 31.376 1.98073 34.179H2.07869V24.1875C2.07869 23.9807 2.25443 23.8125 2.47053 23.8125H17.3603C17.5764 23.8125 17.7522 23.9807 17.7522 24.1875V38.7923H42.9052L43.2893 38.6985C46.2488 34.8793 48 30.1512 48 25.0313C48 12.3459 37.2549 2.0625 24 2.0625Z" fill="#D8ECFE"/>
<path d="M29.094 31.5825V34.4361H33.4988C33.8527 33.1402 34.8324 32.0844 36.1089 31.5825H29.094Z" fill="#FE646F"/>
<path d="M46.7833 31.5825H39.4663C40.7429 32.0844 41.7227 33.1402 42.0764 34.4361H46.0404C46.5815 34.4361 47.02 34.0163 47.02 33.4986V31.6763L46.7833 31.5825Z" fill="#FE646F"/>
<path d="M45.1592 27.1406H46.946L47.0204 27.0469V25.6123C47.0204 25.3825 46.9843 25.1554 46.9158 24.9375L46.7782 24.8438H33.9984C33.7823 24.8438 33.6065 24.6756 33.6065 24.4688V19.125C33.6065 18.9182 33.7823 18.75 33.9984 18.75H42.8454L42.8994 18.6563L42.1164 17.4627C41.9373 17.1895 41.6239 17.0237 41.2868 17.0237H30.9089V31.6763H35.8867C36.4632 31.4133 37.1077 31.2655 37.7877 31.2655C38.4678 31.2655 39.1122 31.4132 39.6887 31.6763H47.0204V30.3281L46.9678 30.2344H45.1592C44.9431 30.2344 44.7673 30.0662 44.7673 29.8594V27.5156C44.7673 27.3088 44.9431 27.1406 45.1592 27.1406Z" fill="#FD4755"/>
<path d="M35.9581 18.7906L35.8602 18.6562H33.999C33.7285 18.6562 33.5092 18.8662 33.5092 19.125V24.4688C33.5092 24.7276 33.7285 24.9375 33.999 24.9375H35.8602L35.9581 24.7718V18.7906Z" fill="#C41926"/>
<path d="M25.6495 8.71875H4.41526C3.87423 8.71875 3.43567 9.13847 3.43567 9.65625V23.8125H17.3604C17.5765 23.8125 17.7522 23.9807 17.7522 24.1875V28.1456H28.7021C28.9182 28.1456 29.0939 28.3138 29.0939 28.5206V31.6763H31.007V14.0235C28.3395 13.3603 26.2543 11.3041 25.6495 8.71875Z" fill="#FED402"/>
<path d="M7.5429 23.7188V9.65625C7.5429 9.13847 7.98146 8.71875 8.52249 8.71875H4.41526C3.87423 8.71875 3.43567 9.13847 3.43567 9.65625V23.7188H7.5429Z" fill="#FAC600"/>
<path d="M24.8815 20.4263H9.56077C9.01974 20.4263 8.58118 20.0065 8.58118 19.4888V15.0938C8.58118 14.576 9.01974 14.1562 9.56077 14.1562H24.8815C25.4225 14.1562 25.8611 14.576 25.8611 15.0938V19.4888C25.8611 20.0065 25.4225 20.4263 24.8815 20.4263Z" fill="white"/>
<path d="M11.657 19.4888V15.0938C11.657 14.576 12.0956 14.1562 12.6366 14.1562H9.56077C9.01974 14.1562 8.58118 14.576 8.58118 15.0938V19.4888C8.58118 20.0065 9.01974 20.4263 9.56077 20.4263H12.6366C12.0956 20.4263 11.657 20.0065 11.657 19.4888Z" fill="#F3F0FF"/>
<path d="M34.8318 38.7922H40.7436C41.7073 37.9972 42.3183 36.8212 42.3183 35.5078C42.3183 33.1132 40.2899 31.1719 37.7877 31.1719C35.2855 31.1719 33.2571 33.1132 33.2571 35.5078C33.2571 36.8212 33.868 37.9972 34.8318 38.7922Z" fill="#9182B0"/>
<path d="M34.7207 38.6985H36.3376C35.4376 37.9064 34.8734 36.7704 34.8734 35.5078C34.8734 33.3773 36.4794 31.607 38.5959 31.242C38.3334 31.1967 38.0636 31.1718 37.7877 31.1718C35.2855 31.1718 33.2571 33.1131 33.2571 35.5077C33.2571 36.7702 33.8211 37.9061 34.7207 38.6985Z" fill="#7A6D98"/>
<path d="M37.7878 37.8281C39.1268 37.8281 40.2123 36.7893 40.2123 35.5078C40.2123 34.2263 39.1268 33.1875 37.7878 33.1875C36.4488 33.1875 35.3633 34.2263 35.3633 35.5078C35.3633 36.7893 36.4488 37.8281 37.7878 37.8281Z" fill="#CFCAE4"/>
<path d="M37.7877 36.75C38.5045 36.75 39.0857 36.1939 39.0857 35.5078C39.0857 34.8218 38.5045 34.2656 37.7877 34.2656C37.0709 34.2656 36.4897 34.8218 36.4897 35.5078C36.4897 36.1939 37.0709 36.75 37.7877 36.75Z" fill="white"/>
<path d="M37.5183 35.5078C37.5183 34.9977 37.8415 34.5588 38.302 34.3678C38.1442 34.3024 37.9704 34.2656 37.7877 34.2656C37.072 34.2656 36.4897 34.8229 36.4897 35.5078C36.4897 36.1927 37.0719 36.75 37.7877 36.75C37.9704 36.75 38.1442 36.7133 38.302 36.6478C37.8415 36.4568 37.5183 36.0179 37.5183 35.5078Z" fill="#F3F0FF"/>
<path d="M32.8652 14.3438C37.004 14.3438 40.3591 11.1328 40.3591 7.17188C40.3591 3.21096 37.004 0 32.8652 0C28.7265 0 25.3713 3.21096 25.3713 7.17188C25.3713 11.1328 28.7265 14.3438 32.8652 14.3438Z" fill="#9182B0"/>
<path d="M29.354 10.8224C28.3251 9.91556 27.68 8.616 27.68 7.17188C27.68 5.72775 28.3251 4.42819 29.354 3.52134C30.4202 1.80028 32.216 0.541875 34.3346 0.13875C33.8594 0.0482813 33.3682 0 32.8652 0C28.7264 0 25.3713 3.21094 25.3713 7.17188C25.3713 11.1328 28.7264 14.3438 32.8652 14.3438C33.3682 14.3438 33.8594 14.2955 34.3346 14.205C32.216 13.8019 30.4202 12.5435 29.354 10.8224Z" fill="#7A6D98"/>
<path d="M32.8658 12.1343C35.7295 12.1343 38.051 9.91252 38.051 7.17188C38.051 4.43123 35.7295 2.2095 32.8658 2.2095C30.0021 2.2095 27.6807 4.43123 27.6807 7.17188C27.6807 9.91252 30.0021 12.1343 32.8658 12.1343Z" fill="white"/>
<path d="M29.6955 7.17188C29.6955 4.76119 31.4919 2.75278 33.8733 2.30391C33.5472 2.2425 33.2107 2.2095 32.8658 2.2095C30.0022 2.2095 27.6807 4.43119 27.6807 7.17188C27.6807 9.91257 30.0021 12.1343 32.8658 12.1343C33.2107 12.1343 33.5473 12.1013 33.8733 12.0398C31.4919 11.591 29.6955 9.58257 29.6955 7.17188Z" fill="#F3F0FF"/>
<path d="M35.5598 7.9035H32.8355C32.6348 7.9035 32.4429 7.82494 32.3043 7.68609L29.7536 5.13103C29.4734 4.85025 29.4839 4.40513 29.7773 4.13691C30.0704 3.86869 30.5355 3.87881 30.8161 4.15959L33.1497 6.49725H35.5598C35.9656 6.49725 36.2945 6.81206 36.2945 7.20038C36.2945 7.58869 35.9655 7.9035 35.5598 7.9035Z" fill="#A79BC6"/>
<path d="M32.865 8.3806C33.5626 8.3806 34.128 7.83943 34.128 7.17188C34.128 6.50432 33.5626 5.96316 32.865 5.96316C32.1675 5.96316 31.6021 6.50432 31.6021 7.17188C31.6021 7.83943 32.1675 8.3806 32.865 8.3806Z" fill="#9182B0"/>
<path d="M28.702 28.0519H17.7521V38.7923H29.1917V28.5206C29.1917 28.2617 28.9724 28.0519 28.702 28.0519Z" fill="#D88A55"/>
<path d="M17.8502 28.0519H20.0053V38.6985H17.8502V28.0519Z" fill="#C57A44"/>
<path d="M24.5981 31.737H22.443C22.1726 31.737 21.9532 31.5271 21.9532 31.2683V28.0519H25.0879V31.2683C25.0879 31.5271 24.8686 31.737 24.5981 31.737Z" fill="#FE646F"/>
<path d="M23.2159 31.2683V28.0519H21.9532V31.2683C21.9532 31.5271 22.1726 31.737 22.443 31.737H23.7057C23.4353 31.737 23.2159 31.5271 23.2159 31.2683Z" fill="#FD4755"/>
<path d="M36.7979 27.375H33.8032C33.6408 27.375 33.5093 27.2491 33.5093 27.0938V26.1562C33.5093 26.0009 33.6408 25.875 33.8032 25.875H36.7979C36.9602 25.875 37.0917 26.0009 37.0917 26.1562V27.0938C37.0917 27.2491 36.9602 27.375 36.7979 27.375Z" fill="#C41926"/>
<path d="M46.645 24.366L42.8991 18.6562H35.8591V24.9375H46.9153C46.8524 24.7373 46.7623 24.5448 46.645 24.366Z" fill="white"/>
<path d="M35.8601 18.6562H38.0219V24.9375H35.8601V18.6562Z" fill="#F3F0FF"/>
<path d="M17.8502 24.1875C17.8502 23.9287 17.6309 23.7188 17.3604 23.7188H2.47063C2.20017 23.7188 1.98083 23.9287 1.98083 24.1875V34.179C2.71259 35.7896 3.63076 37.3048 4.71066 38.6985L5.09476 38.7922H17.8502V24.1875Z" fill="#F6A96C"/>
<path d="M4.99602 24.1875C4.99602 23.9287 5.21535 23.7188 5.48581 23.7188H2.47063C2.20017 23.7188 1.98083 23.9287 1.98083 24.1875V34.179C2.71259 35.7896 3.63076 37.3048 4.71066 38.6985L4.99602 38.7682V24.1875Z" fill="#EA9B58"/>
<path d="M11.3847 28.875H8.44597C8.17551 28.875 7.95618 28.6651 7.95618 28.4062V23.7188H11.8745V28.4062C11.8745 28.6651 11.6552 28.875 11.3847 28.875Z" fill="#FE646F"/>
<path d="M9.40401 28.4062V23.7188H7.95618V28.4062C7.95618 28.6651 8.17551 28.875 8.44597 28.875H9.89381C9.62334 28.875 9.40401 28.6651 9.40401 28.4062Z" fill="#FD4755"/>
<path d="M8.68323 42.1875L8.15503 42.2812C12.3822 45.8404 17.9269 48 23.9995 48C30.0721 48 35.617 45.8404 39.844 42.2812L39.3158 42.1875H8.68323Z" fill="#B5ADD5"/>
<path d="M4.71021 38.6985C5.72379 40.0065 6.87932 41.2074 8.15474 42.2813H39.8445C41.12 41.2074 42.2755 40.0065 43.2891 38.6985H4.71021Z" fill="#CFCAE4"/>
<path d="M47.0205 27.0469H45.1592C44.8888 27.0469 44.6694 27.2568 44.6694 27.5156V29.8594C44.6694 30.1182 44.8888 30.3281 45.1592 30.3281H47.0205V27.0469Z" fill="white"/>
</g>
<defs>
<clipPath id="clip0_49_23875">
<rect width="48" height="48" fill="white"/>
</clipPath>
</defs>
</svg>
