<svg width="71" height="75" viewBox="0 0 71 75" fill="none" xmlns="http://www.w3.org/2000/svg">
<path d="M47.112 15.8584V63.607C47.112 65.4791 45.5945 66.9966 43.7224 66.9966H4.39355C2.52142 66.9966 1.00391 65.4791 1.00391 63.607V15.8584C1.00391 13.9863 2.52142 12.4688 4.39355 12.4688H43.7224C45.5944 12.4689 47.112 13.9864 47.112 15.8584Z" fill="#8AC6F2"/>
<path d="M47.1122 15.8583V62.5805H8.14062C6.26849 62.5805 4.75098 61.063 4.75098 59.1909V12.4688H43.7225C45.5945 12.4688 47.1122 13.9863 47.1122 15.8583Z" fill="#2099F1"/>
<path d="M56.9031 53.3328L19.2684 64.7473C17.4766 65.2907 15.5845 64.279 15.0411 62.4884L1.1816 16.7939C0.636936 15.0035 1.64857 13.11 3.44047 12.5666L4.1724 12.3444L41.0753 1.15072C42.8671 0.607386 44.7592 1.61902 45.3026 3.41093L58.8489 48.0683L59.1634 49.1055C59.7068 50.8959 58.6951 52.7894 56.9031 53.3328Z" fill="#CAE3F4"/>
<path d="M58.849 48.0683L21.9449 59.2608C20.1531 59.8042 18.2609 58.7925 17.7176 57.002L4.17285 12.3446L41.0756 1.15072C42.8674 0.607386 44.7596 1.61902 45.3029 3.41093L58.849 48.0683Z" fill="#E5F1FA"/>
<path d="M47.2081 63.0314C46.6581 62.9632 46.1577 63.3539 46.0894 63.9039C45.9422 65.0948 44.9252 65.9927 43.7221 65.9927H4.3933C3.07793 65.9927 2.00733 64.9236 2.00733 63.6068V22.976L7.46579 40.9717C7.59687 41.4052 7.99571 41.6849 8.42523 41.6849C8.52151 41.6849 8.62059 41.6701 8.71688 41.6408C9.24813 41.4802 9.54789 40.9195 9.38599 40.3895L4.37856 23.8792C5.06109 25.5774 6.72576 26.7804 8.66734 26.7804C11.2152 26.7804 13.2894 24.7062 13.2894 22.1584C13.2894 20.3754 13.2894 12.0086 13.2894 10.63C19.9769 8.60034 28.0082 6.16549 35.4495 3.90834C35.9794 3.74644 36.2792 3.18703 36.1186 2.65578C35.9567 2.12586 35.396 1.82611 34.8661 1.98668L16.2989 7.61899C15.227 5.51803 13.0418 4.07688 10.5247 4.07688C6.9518 4.07688 4.04534 6.98335 4.04534 10.5563V11.3364L3.14872 11.608C1.28337 12.1729 0.0308125 13.8617 0.0308125 15.8101L0 16.9983V63.6069C0 66.0303 1.97107 68.0001 4.39317 68.0001H43.722C45.9367 68.0001 47.8101 66.3447 48.0817 64.1501C48.1504 63.6001 47.7582 63.0984 47.2081 63.0314ZM6.0528 10.5564C6.0528 8.09021 8.05866 6.08421 10.525 6.08421C12.1335 6.08421 13.5466 6.93793 14.3334 8.21598L12.6018 8.74059C11.0103 6.91003 7.98695 7.81967 7.68666 10.2313C7.65133 10.5081 7.66368 20.1691 7.66395 20.5393C7.66395 21.0932 8.11352 21.5429 8.66761 21.5429C9.22157 21.5429 9.67127 21.0933 9.67127 20.5393C9.67127 19.8002 9.67127 11.0207 9.67127 10.5819C9.67127 10.1376 10.0325 9.77626 10.4769 9.77626C10.9212 9.77626 11.2826 10.1375 11.2826 10.5819C11.2826 11.9574 11.2826 20.628 11.2826 22.1584C11.2826 23.5995 10.109 24.7732 8.66774 24.7732C7.22646 24.7732 6.05293 23.5997 6.05293 22.1584C6.0528 19.6812 6.0528 13.0634 6.0528 10.5564ZM2.73673 14.1307C2.73806 14.128 2.73939 14.1267 2.74072 14.128C2.83223 14.0653 3.27303 13.6072 4.04547 13.4977C4.07801 22.5168 3.97202 22.2787 4.14176 23.0991L2.14134 16.5045C1.87664 15.6224 2.13988 14.7312 2.73673 14.1307Z" fill="#0074C9"/>
<path d="M46.2635 3.12001C45.5384 0.730452 43.0487 -0.501517 40.785 0.192163L38.7082 0.821163C38.1782 0.983061 37.8785 1.54247 38.0391 2.07372C38.1996 2.60364 38.7604 2.9034 39.2903 2.74283C41.2584 2.17399 41.4745 2.00957 42.0617 2.00957C43.1015 2.00957 44.0409 2.70537 44.3433 3.70373L47.227 13.2128L48.1155 16.1408L58.2026 49.3971C58.5968 50.6859 57.8332 52.003 56.6129 52.3731C16.4104 64.5674 18.822 63.8921 18.2836 63.8921C17.2425 63.8921 16.3044 63.1963 16.002 62.1979L10.5517 44.2303C10.3911 43.7003 9.83035 43.4006 9.30043 43.5612C8.76918 43.7231 8.47075 44.2838 8.63132 44.8137L14.0803 62.7814C14.6464 64.6467 16.3351 65.8993 18.2836 65.8993C18.7144 65.8993 19.1441 65.835 19.5602 65.7092L46.1082 57.6561V60.014C46.1082 60.5679 46.5565 61.0176 47.1119 61.0176C47.6658 61.0176 48.1155 60.5681 48.1155 60.014V57.0472L57.195 54.2932C59.0604 53.7272 60.3142 52.0384 60.3142 50.0913C60.3142 48.8699 60.8092 51.2999 46.2635 3.12001Z" fill="#0074C9"/>
<path d="M43.0122 18.645L14.402 27.3233C13.8717 27.4843 13.5721 28.0448 13.7329 28.5751C13.8931 29.103 14.4515 29.4057 14.9847 29.2442L43.5949 20.5658C44.1252 20.4049 44.4248 19.8444 44.264 19.3141C44.103 18.7836 43.5423 18.4843 43.0122 18.645Z" fill="#0074C9"/>
<path d="M44.6819 24.1527L44.5226 24.2009L16.0718 32.8308C15.5419 32.9927 15.2421 33.5521 15.4027 34.0833C15.5642 34.6155 16.1276 34.9116 16.6552 34.7525C16.6709 34.7478 45.2075 26.0919 45.2653 26.0744C45.7952 25.9125 46.095 25.3517 45.9344 24.8218C45.7724 24.2919 45.2117 23.9921 44.6819 24.1527Z" fill="#0074C9"/>
<path d="M46.3535 29.6578L44.523 30.2131L17.7421 38.3371C16.6424 38.6703 16.8857 40.3015 18.0338 40.3015C18.1301 40.3015 18.2278 40.2868 18.3254 40.2574C24.6942 38.3257 40.1741 33.6302 46.9355 31.5793C47.4654 31.4188 47.7652 30.858 47.6046 30.3268C47.4466 29.8074 46.8976 29.497 46.3535 29.6578Z" fill="#0074C9"/>
<path d="M55.3877 41.0849L69.3515 65.7657C69.8636 66.6708 70.1581 67.7201 70.1581 68.8403C70.1581 72.2421 67.4556 75 64.1218 75H50.1581L45.3291 56.5L50.1581 38C52.394 38 54.3446 39.2415 55.3877 41.0849Z" fill="#AC8000"/>
<path d="M44.9286 41.0849L30.9647 65.7657C30.4527 66.6708 30.1582 67.7201 30.1582 68.8403C30.1582 72.2421 32.8607 75 36.1945 75H50.1582V38C47.9223 38 45.9717 39.2415 44.9286 41.0849Z" fill="#775800"/>
<path d="M67.2605 66.9985L53.2967 42.318C52.6673 41.2051 51.5116 40.5029 50.2617 40.4668L62.2046 72.5372H64.1217C66.1185 72.5372 67.7434 70.8792 67.7434 68.8414C67.7434 68.1943 67.576 67.557 67.2605 66.9985Z" fill="#FFC10F"/>
<path d="M64.9119 66.9971C65.1847 67.5555 65.3287 68.1928 65.3287 68.84C65.3287 70.8776 63.9276 72.5358 62.2044 72.5358H36.194C34.1972 72.5358 32.5723 70.8776 32.5723 68.84C32.5723 68.1928 32.7397 67.5555 33.0552 66.9971L47.0189 42.3165C47.666 41.1733 48.8684 40.4629 50.1577 40.4629C50.1923 40.4629 50.227 40.4637 50.2616 40.4654C51.3344 40.5081 52.3252 41.2086 52.8652 42.3165L64.9119 66.9971Z" fill="#FFE071"/>
<path d="M50.1582 64.3242V68.4307C51.2697 68.4307 52.1703 67.5116 52.1703 66.3774C52.1703 65.2433 51.2697 64.3242 50.1582 64.3242Z" fill="#AC8000"/>
<path d="M50.1586 64.3242C50.3807 64.3242 50.561 65.2433 50.561 66.3775C50.561 67.5117 50.3807 68.4307 50.1586 68.4307C49.0471 68.4307 48.1465 67.5117 48.1465 66.3775C48.1465 65.2433 49.0471 64.3242 50.1586 64.3242Z" fill="#775800"/>
<path d="M50.1582 46.666V61.8599C51.2697 61.8599 52.1703 60.94 52.1703 59.8066V48.7193C52.1703 47.5851 51.2697 46.666 50.1582 46.666Z" fill="#AC8000"/>
<path d="M50.1586 46.666C50.3807 46.666 50.561 47.5851 50.561 48.7193V59.8066C50.561 60.94 50.3807 61.8599 50.1586 61.8599C49.0471 61.8599 48.1465 60.94 48.1465 59.8066V48.7193C48.1465 47.5851 49.0471 46.666 50.1586 46.666Z" fill="#775800"/>
</svg>
