<svg width="24" height="24" viewBox="0 0 24 24" fill="none" xmlns="http://www.w3.org/2000/svg">
<path d="M20.8098 4H7.96345C7.45406 4 7.45334 4.89621 7.96345 4.89621H20.8098C21.0286 4.89621 21.2066 5.09724 21.2066 5.34432V15.9339C21.2066 16.181 21.0286 16.382 20.8098 16.382H13.8635C13.7421 16.382 13.6273 16.4448 13.5521 16.5525L11.9519 18.8424L10.2546 16.5431C10.1793 16.4411 10.0676 16.382 9.94992 16.382H3.19017C2.97141 16.382 2.79344 16.181 2.79344 15.9339V5.34432C2.79344 5.09724 2.97141 4.89621 3.19017 4.89621H4.69977C5.20917 4.89621 5.20988 4 4.69977 4H3.19017C2.53391 4 2 4.60306 2 5.34432V15.9339C2 16.6752 2.53391 17.2782 3.19017 17.2782H9.76421L11.6556 19.8405C11.8153 20.0569 12.1171 20.0525 12.2717 19.8311L14.0558 17.2782H20.8098C21.4661 17.2782 22 16.6752 22 15.9339V5.34432C22 4.60306 21.4661 4 20.8098 4Z" fill="#012F47"/>
<path d="M4.19716 9.76473C4.15515 9.91072 4.18225 10.0708 4.26897 10.189L5.04143 11.2424L4.96466 12.6075C4.90436 13.6769 6.32582 12.5412 6.63248 12.5481C6.94181 12.5551 8.35993 13.6648 8.30031 12.6075L8.2235 11.2424L8.996 10.189C9.17643 9.94307 9.06455 9.54878 8.78887 9.46911L7.6158 9.1298L6.96756 7.97449C6.81621 7.70464 6.44968 7.70299 6.29737 7.97449L5.64913 9.1298L4.47606 9.46911C4.34439 9.50716 4.23918 9.61869 4.19716 9.76473ZM5.9984 9.95383C6.2917 9.86905 6.48475 9.3146 6.63245 9.05134C6.77776 9.31035 6.97601 9.86985 7.26649 9.95383L7.98559 10.1618L7.51202 10.8076C7.44755 10.8955 7.41522 11.0079 7.42164 11.1218L7.46874 11.9587L6.77872 11.6495C6.68473 11.6074 6.58012 11.6074 6.48613 11.6495L5.79611 11.9587L5.84317 11.1218C5.84959 11.0079 5.81726 10.8955 5.75279 10.8076L5.27926 10.1618L5.9984 9.95383Z" fill="#012F47"/>
<path d="M14.3954 9.76477C14.3534 9.61878 14.2482 9.5072 14.1165 9.46911L12.9434 9.12981L12.2952 7.97449C12.1438 7.70464 11.7773 7.70299 11.625 7.97449L10.9767 9.12981L9.80368 9.46911C9.67201 9.5072 9.56676 9.61878 9.52478 9.76477C9.48281 9.91077 9.50987 10.0709 9.59659 10.1891L10.3691 11.2425L10.2923 12.6076C10.2319 13.6769 11.6535 12.5413 11.9601 12.5482C12.2694 12.5552 13.6876 13.6649 13.6279 12.6076L13.5511 11.2425L14.3236 10.1891C14.4103 10.0709 14.4374 9.91077 14.3954 9.76477ZM12.8397 10.8076C12.7752 10.8955 12.7429 11.008 12.7493 11.1219L12.7964 11.9587C12.5486 11.8477 12.2323 11.618 11.9601 11.618C11.6892 11.618 11.3709 11.848 11.1238 11.9587L11.1709 11.1219C11.1773 11.008 11.145 10.8955 11.0805 10.8076L10.607 10.1619L11.3261 9.95387C11.6194 9.86909 11.8124 9.31465 11.9601 9.05139C12.1054 9.31039 12.3037 9.8699 12.5941 9.95387L13.3132 10.1619L12.8397 10.8076Z" fill="#012F47"/>
<path d="M19.7236 9.76477C19.6816 9.61873 19.5764 9.5072 19.4447 9.46911L18.2717 9.1298L17.6234 7.97449C17.4721 7.70464 17.1055 7.70299 16.9532 7.97449L16.305 9.1298L15.1319 9.46911C14.8579 9.54834 14.7432 9.94155 14.9248 10.189L15.6973 11.2424L15.6205 12.6075C15.5602 13.6767 16.981 12.5412 17.2883 12.5481C17.597 12.5551 19.0157 13.6651 18.9561 12.6075L18.8794 11.2424L19.6518 10.189C19.7385 10.0709 19.7656 9.91077 19.7236 9.76477ZM18.1679 10.8076C18.1035 10.8955 18.0711 11.008 18.0776 11.1219L18.1246 11.9587L17.4346 11.6496C17.3371 11.6075 17.2395 11.6075 17.142 11.6496L16.452 11.9587L16.4991 11.1219C16.5055 11.008 16.4732 10.8955 16.4087 10.8076L15.9352 10.1619L16.6543 9.95387C16.9476 9.86909 17.1406 9.31465 17.2883 9.05139C17.4336 9.31039 17.6319 9.8699 17.9223 9.95387L18.6414 10.1619L18.1679 10.8076Z" fill="#012F47"/>
<path d="M6.12008 4.82021C6.41869 5.05134 6.81736 4.71549 6.72211 4.3285C6.67676 4.14424 6.5289 4.01003 6.35954 4.00053C6.19058 3.99108 6.03086 4.10879 5.97016 4.28687C5.90478 4.47884 5.96671 4.70697 6.12008 4.82021Z" fill="#012F47"/>
</svg>
