<svg width="32" height="32" viewBox="0 0 32 32" fill="none" xmlns="http://www.w3.org/2000/svg">
<path d="M13.6935 4.6788L11.3468 9.37213C11.0268 10.0255 10.1735 10.6521 9.45345 10.7721L5.20012 11.4788C2.48012 11.9321 1.84012 13.9055 3.80012 15.8521L7.10679 19.1588C7.66679 19.7188 7.97346 20.7988 7.80012 21.5721L6.85345 25.6655C6.10679 28.9055 7.82679 30.1588 10.6935 28.4655L14.6801 26.1055C15.4001 25.6788 16.5868 25.6788 17.3201 26.1055L21.3068 28.4655C24.1601 30.1588 25.8935 28.8921 25.1468 25.6655L24.2001 21.5721C24.0268 20.7988 24.3335 19.7188 24.8935 19.1588L28.2001 15.8521C30.1468 13.9055 29.5201 11.9321 26.8001 11.4788L22.5468 10.7721C21.8401 10.6521 20.9868 10.0255 20.6668 9.37213L18.3201 4.6788C17.0401 2.13213 14.9601 2.13213 13.6935 4.6788Z" fill="#0C8934"/>
<path d="M18.8278 15.3581C18.3277 15.3581 17.9222 14.9526 17.9222 14.4525C17.9222 13.9523 18.3277 13.5469 18.8278 13.5469C19.328 13.5469 19.7334 13.9523 19.7334 14.4525C19.7334 14.9526 19.328 15.3581 18.8278 15.3581Z" fill="white"/>
<path d="M13.0714 15.3581C12.5713 15.3581 12.1659 14.9526 12.1659 14.4525C12.1659 13.9523 12.5713 13.5469 13.0714 13.5469C13.5716 13.5469 13.9771 13.9523 13.9771 14.4525C13.9771 14.9526 13.5716 15.3581 13.0714 15.3581Z" fill="white"/>
<path d="M19.2755 18.6266C19.5158 18.633 19.6567 18.864 19.6567 19.4862C19.6567 21.5524 16.6262 21.6167 16.0372 21.6097C15.4731 21.6175 12.4079 21.5638 12.4079 19.4863C12.4079 18.8833 12.5403 18.6477 12.7673 18.628" fill="white"/>
</svg>
