<svg xmlns="http://www.w3.org/2000/svg" width="14" height="14" viewBox="0 0 14 14">
    <g data-name="Group 1">
        <g data-name="Group 2">
            <path data-name="Icon awesome-directions" d="M13.743 6.38 7.62.257a.877.877 0 0 0-1.24 0L.257 6.38a.877.877 0 0 0 0 1.24l6.123 6.123a.877.877 0 0 0 1.24 0l6.123-6.123a.877.877 0 0 0 0-1.24zm-2.761.343-2.3 2.125a.219.219 0 0 1-.367-.161V7.219H5.687v1.75a.219.219 0 0 1-.219.219h-.875a.219.219 0 0 1-.219-.219V6.781a.875.875 0 0 1 .875-.875h3.063V4.437a.219.219 0 0 1 .367-.161l2.3 2.125a.219.219 0 0 1 .003.322z" style="fill:#0074c9"/>
        </g>
    </g>
</svg>
