<svg width="160" height="160" viewBox="0 0 160 160" fill="none" xmlns="http://www.w3.org/2000/svg">
<g clip-path="url(#clip0_4982_61832)">
<path d="M26.9217 98.0679C60.3347 37.9366 102.071 47.129 102.071 47.129C128.813 51.978 119.202 63.8796 132.872 81.3075C146.543 98.7354 149.289 120.31 132.872 142.042C116.456 163.775 86.2981 162.106 76.6567 156.005C76.6567 156.005 65.8419 150.695 55.092 153.291C44.3422 155.888 31.8997 156.074 26.053 151.068C20.2062 146.062 7.23447 133.503 26.9217 98.0777V98.0679Z" fill="#F0F7FC"/>
<path d="M157.345 79.988C156.885 79.533 156.885 78.7963 157.345 78.3413C157.805 77.8862 158.55 77.8862 159.01 78.3413C159.47 78.7963 159.47 79.533 159.01 79.988C158.55 80.443 157.805 80.443 157.345 79.988Z" fill="#FC973A"/>
<path d="M159.718 35.3434C159.718 36.0859 159.109 36.6884 158.359 36.6884C157.608 36.6884 157 36.0859 157 35.3434C157 34.6017 157.608 34 158.359 34C159.109 34 159.718 34.6017 159.718 35.3434Z" fill="#FC973A"/>
<path d="M143.194 64.7235C143.417 65.3018 143.123 65.9502 142.537 66.1702C141.951 66.3902 141.297 66.0994 141.074 65.521C140.852 64.9418 141.146 64.2935 141.732 64.0735C142.316 63.8535 142.971 64.1443 143.194 64.7235Z" fill="#FC973A"/>
<path d="M121.992 49.9483C122.255 49.6891 122.089 49.0741 121.625 48.3766C121.488 48.1691 121.488 47.9024 121.625 47.6949C122.089 46.9974 122.255 46.3824 121.992 46.1232C121.73 45.864 121.108 46.0274 120.403 46.4857C120.193 46.6215 119.923 46.6215 119.713 46.4857C119.009 46.0274 118.387 45.864 118.124 46.1232C117.863 46.3824 118.028 46.9974 118.491 47.6949C118.629 47.9024 118.629 48.1691 118.491 48.3766C118.028 49.0741 117.863 49.6891 118.124 49.9483C118.387 50.2075 119.009 50.0441 119.713 49.5858C119.923 49.45 120.193 49.45 120.403 49.5858C121.108 50.0441 121.73 50.2075 121.992 49.9483Z" fill="#FC973A"/>
<path d="M10.2246 100.4C10.5255 100.4 10.7884 99.9518 10.9274 99.2876C10.9687 99.0901 11.1246 98.9368 11.3243 98.8959C11.9959 98.7576 12.4493 98.4976 12.4493 98.2001C12.4493 97.9017 11.9959 97.6417 11.3243 97.5042C11.1246 97.4634 10.9687 97.31 10.9274 97.1125C10.7884 96.4475 10.5255 96 10.2246 96C9.92296 96 9.66089 96.4475 9.52101 97.1125C9.47972 97.31 9.32467 97.4634 9.12495 97.5042C8.45251 97.6417 8 97.9017 8 98.2001C8 98.4976 8.45251 98.7576 9.12495 98.8959C9.32467 98.9368 9.47972 99.0901 9.52101 99.2876C9.66089 99.9518 9.92296 100.4 10.2246 100.4Z" fill="#FC973A"/>
<path d="M28.2913 48.747C27.7495 47.9244 27.9854 46.8236 28.8171 46.2877C29.6488 45.7527 30.7628 45.9852 31.3038 46.8077C31.8448 47.6311 31.6097 48.7311 30.778 49.267C29.9463 49.8028 28.8331 49.5695 28.2913 48.747Z" fill="#FC973A"/>
<path d="M2.02559 68.9212C2.15958 68.2937 2.78315 67.8928 3.41767 68.0253C4.05304 68.1578 4.45836 68.7745 4.32438 69.402C4.18955 70.0295 3.56682 70.4312 2.9323 70.2979C2.29693 70.1654 1.89161 69.5487 2.02559 68.9212Z" fill="#FC973A"/>
<path d="M87.4439 148.715C86.7517 148.715 86.1319 148.256 85.938 147.6L69.6824 92.7C69.4395 91.8789 69.9178 91.0158 70.7481 90.7747L98.0938 82.8563C98.2377 82.8144 98.3858 82.793 98.5347 82.793C99.2269 82.793 99.8459 83.2521 100.041 83.9086L116.295 138.808C116.413 139.206 116.368 139.625 116.166 139.989C115.965 140.353 115.633 140.617 115.231 140.733L87.8848 148.653C87.7409 148.695 87.5928 148.715 87.4439 148.715Z" fill="#42BE65"/>
<path d="M98.5321 83.4153C98.9381 83.4153 99.3125 83.6778 99.4331 84.0834L115.688 138.982C115.834 139.474 115.548 139.99 115.051 140.134L87.705 148.053C87.6168 148.079 87.5278 148.09 87.4405 148.09C87.0345 148.09 86.6601 147.828 86.5394 147.422L70.2846 92.5242C70.139 92.0322 70.4244 91.5155 70.9219 91.3715L98.2684 83.4523C98.3558 83.4268 98.4456 83.4153 98.5321 83.4153ZM98.5321 82.168C98.3233 82.168 98.1153 82.1984 97.914 82.2568L70.5683 90.1752C69.4044 90.5125 68.7347 91.7237 69.0749 92.8747L85.3306 147.773C85.4662 148.233 85.7449 148.627 86.1343 148.912C86.5103 149.186 86.9746 149.338 87.4405 149.338C87.6493 149.338 87.8573 149.307 88.0594 149.249L115.405 141.329C116.569 140.993 117.238 139.782 116.898 138.631L100.643 83.7321C100.506 83.2721 100.229 82.8788 99.8383 82.5942C99.4623 82.3202 98.9989 82.168 98.5321 82.168Z" fill="white"/>
<path d="M115.691 138.981L99.4366 84.0814C99.2902 83.5894 98.7686 83.3072 98.2719 83.452L70.9254 91.3704C70.4953 91.4955 70.2257 91.897 70.254 92.3223C70.3305 92.2713 70.4129 92.2285 70.5052 92.2022L97.8517 84.283C98.3484 84.139 98.8701 84.4204 99.0165 84.9133L115.271 139.812C115.291 139.879 115.301 139.946 115.305 140.013C115.64 139.794 115.81 139.382 115.691 138.981Z" fill="#D9F2E0"/>
<path d="M89.0078 144.942C88.9204 144.942 88.8331 144.922 88.7549 144.879C88.6326 144.813 88.5419 144.702 88.5036 144.569L73.4959 93.8842C73.4144 93.6085 73.5741 93.3206 73.852 93.2407L96.8257 86.5878C96.874 86.5738 96.9247 86.5664 96.9738 86.5664C97.0612 86.5664 97.1477 86.5886 97.2251 86.6306C97.3474 86.6964 97.4389 86.8075 97.478 86.9399L112.484 137.624C112.524 137.757 112.508 137.899 112.441 138.02C112.374 138.14 112.262 138.231 112.129 138.269L89.155 144.922C89.1068 144.936 89.0577 144.942 89.0078 144.942Z" fill="#D9F2E0"/>
<path d="M96.9709 87.0841L111.979 137.769L89.0048 144.422L73.9971 93.737L96.9709 87.0841ZM96.9717 86.0449C96.8735 86.0449 96.7745 86.0589 96.6763 86.0869L73.7026 92.7398C73.4347 92.8172 73.2093 92.9965 73.0761 93.2384C72.9422 93.4803 72.9114 93.7642 72.9896 94.0291L87.9965 144.714C88.1313 145.166 88.5498 145.461 89.004 145.461C89.1022 145.461 89.2012 145.447 89.3002 145.419L112.273 138.766C112.54 138.688 112.766 138.509 112.9 138.267C113.033 138.025 113.064 137.741 112.987 137.477L97.9784 86.792C97.8444 86.3387 97.4259 86.0449 96.9717 86.0449Z" fill="white"/>
<path d="M106.023 139.492L111.972 137.769L110.145 131.6C106.884 132.71 105.043 136.183 106.023 139.492Z" fill="#42BE65"/>
<path d="M106.031 139.49C105.05 136.182 106.892 132.709 110.153 131.598L109.858 130.6C106.041 131.873 103.88 135.925 105.022 139.783L106.031 139.49Z" fill="white"/>
<path d="M91.8286 138.863C90.8577 138.337 89.7903 138.07 88.713 138.07C88.1996 138.07 87.6838 138.132 87.1738 138.255L89.0008 144.424L94.951 142.701C94.4626 141.05 93.3536 139.687 91.8286 138.863Z" fill="#42BE65"/>
<path d="M92.3344 137.949C90.6538 137.04 88.7295 136.797 86.8809 137.254L87.177 138.253C87.6862 138.13 88.2028 138.069 88.7162 138.069C89.7935 138.069 90.8593 138.335 91.831 138.861C93.356 139.685 94.465 141.049 94.9534 142.698L95.9609 142.407C95.3935 140.491 94.1056 138.908 92.3344 137.949Z" fill="white"/>
<path d="M94.1399 92.6451C95.5751 93.421 97.2165 93.6333 98.7947 93.254L96.9678 87.084L91.0176 88.8069C91.5059 90.4565 92.6149 91.8199 94.1399 92.6451Z" fill="#42BE65"/>
<path d="M90.0098 89.0987C90.5772 91.015 91.865 92.598 93.6363 93.5557C94.7644 94.1662 96.0024 94.4772 97.2528 94.4772C97.866 94.4764 98.4824 94.4015 99.0898 94.2518L98.7944 93.2537C97.2162 93.633 95.5747 93.4208 94.1404 92.6449C92.6155 91.8196 91.5065 90.4563 91.0173 88.8066L90.0098 89.0987Z" fill="white"/>
<path d="M79.9513 92.0156L74.002 93.7393L75.8281 99.9093C79.0902 98.7977 80.9305 95.3232 79.9513 92.0156Z" fill="#42BE65"/>
<path d="M80.9491 91.7227L79.9416 92.0147C80.9208 95.3223 79.0796 98.796 75.8184 99.9076L76.1137 100.905C79.9307 99.632 82.0913 95.5798 80.9491 91.7227Z" fill="white"/>
<path d="M92.8147 122.755C91.1982 122.755 89.5875 122.229 88.2797 121.276C86.9286 120.288 85.9635 118.922 85.4901 117.325C84.3071 113.328 86.6316 109.126 90.6724 107.956C91.3737 107.753 92.0967 107.65 92.8213 107.65C94.4378 107.65 96.0485 108.175 97.3555 109.13C98.7074 110.116 99.6725 111.482 100.145 113.081C100.718 115.016 100.495 117.056 99.5161 118.826C98.5369 120.595 96.9212 121.882 94.9636 122.449C94.2623 122.652 93.5393 122.755 92.8147 122.755Z" fill="#42BE65"/>
<path d="M92.8318 108.17C95.9075 108.17 98.7437 110.16 99.6522 113.228C100.755 116.954 98.5948 120.86 94.826 121.951C94.1596 122.145 93.4874 122.237 92.8251 122.237C89.7494 122.237 86.9132 120.247 86.0047 117.179C84.9015 113.453 87.0621 109.547 90.8301 108.456C91.4973 108.263 92.1704 108.17 92.8318 108.17ZM92.8318 107.131C92.0572 107.131 91.2852 107.242 90.5356 107.458C89.4781 107.765 88.5139 108.266 87.667 108.95C86.85 109.611 86.1778 110.411 85.6694 111.331C85.1611 112.25 84.8416 113.242 84.7202 114.278C84.5945 115.352 84.6877 116.427 84.9972 117.471C85.503 119.18 86.5338 120.639 87.979 121.694C88.6728 122.201 89.4399 122.594 90.2577 122.864C91.0888 123.137 91.9524 123.275 92.8251 123.275C93.5997 123.275 94.3726 123.165 95.1213 122.949C96.1779 122.643 97.143 122.141 97.9899 121.457C98.8069 120.796 99.4791 119.996 99.9875 119.077C100.496 118.157 100.815 117.165 100.937 116.13C101.062 115.055 100.969 113.98 100.661 112.936C100.154 111.227 99.1231 109.768 97.6788 108.713C96.9841 108.206 96.217 107.812 95.3984 107.542C94.5681 107.269 93.7045 107.131 92.8318 107.131Z" fill="white"/>
<path d="M92.5233 112.588L93.4343 112.269L94.3969 114.948C94.5791 114.838 94.7346 114.713 94.8636 114.571C94.9934 114.43 95.099 114.29 95.1789 114.152L94.3394 111.815L95.3744 111.451L97.2971 116.809L96.2621 117.172L95.6415 115.443C95.5691 115.551 95.4726 115.675 95.3528 115.818C95.233 115.962 95.0674 116.097 94.8544 116.227L95.2704 117.383L94.3594 117.703L93.9834 116.656C93.718 116.74 93.4534 116.764 93.1913 116.728C92.9284 116.692 92.6772 116.609 92.4368 116.479C92.1955 116.349 91.9775 116.174 91.7828 115.954C91.5882 115.735 91.4334 115.489 91.3186 115.219L89.7179 118.139L88.5332 117.349L90.1655 114.788C90.2878 114.589 90.3993 114.403 90.4991 114.231C90.599 114.059 90.6855 113.906 90.757 113.771C90.8394 113.614 90.9134 113.469 90.9767 113.338L91.9076 113.422C91.9068 113.55 91.9151 113.668 91.9309 113.776C91.9467 113.885 91.9808 114.013 92.0333 114.16C92.1905 114.597 92.4035 114.908 92.6739 115.093C92.9426 115.278 93.2163 115.344 93.4933 115.292L92.5233 112.588Z" fill="white"/>
<path d="M58.7935 154.379C58.1013 154.379 57.4815 153.92 57.2877 153.264L41.032 98.364C40.7891 97.5429 41.2674 96.6798 42.0977 96.4388L69.4434 88.5204C69.5873 88.4784 69.7354 88.457 69.8844 88.457C70.5765 88.457 71.1955 88.9161 71.3902 89.5727L87.645 144.472C87.7623 144.87 87.7174 145.289 87.5152 145.653C87.3147 146.017 86.9828 146.281 86.5801 146.398L59.2344 154.317C59.0905 154.359 58.9424 154.379 58.7935 154.379Z" fill="#42BE65"/>
<path d="M69.8817 89.0813C70.2877 89.0813 70.6621 89.3438 70.7828 89.7494L87.0376 144.648C87.1832 145.14 86.8978 145.656 86.4003 145.8L59.0546 153.719C58.9664 153.745 58.8774 153.756 58.7901 153.756C58.3841 153.756 58.0097 153.494 57.889 153.088L41.6342 98.1902C41.4886 97.6982 41.774 97.1815 42.2715 97.0375L69.618 89.1183C69.7054 89.0928 69.7952 89.0813 69.8817 89.0813ZM69.8817 87.834C69.6729 87.834 69.4649 87.8644 69.2636 87.9228L41.9179 95.8412C40.754 96.1786 40.0843 97.3897 40.4246 98.5407L56.6802 153.439C56.8158 153.899 57.0945 154.294 57.4839 154.578C57.8599 154.852 58.3242 155.004 58.7901 155.004C58.9989 155.004 59.2069 154.973 59.409 154.915L86.7547 146.995C87.9186 146.659 88.5875 145.448 88.2472 144.297L71.9924 89.3981C71.856 88.9381 71.5781 88.5449 71.1879 88.2602C70.8119 87.9862 70.3485 87.834 69.8817 87.834Z" fill="white"/>
<path d="M87.0411 144.649L70.7862 89.7494C70.6398 89.2574 70.1182 88.9752 69.6215 89.12L42.275 97.0384C41.8449 97.1634 41.5753 97.5649 41.6036 97.9903C41.6801 97.9393 41.7625 97.8965 41.8548 97.8702L69.2013 89.951C69.698 89.807 70.2197 90.0884 70.3661 90.5812L86.6209 145.48C86.6409 145.547 86.6509 145.614 86.655 145.681C86.9895 145.462 87.16 145.05 87.0411 144.649Z" fill="#D9F2E0"/>
<path d="M60.3574 150.606C60.27 150.606 60.1827 150.586 60.1045 150.543C59.9822 150.477 59.8915 150.366 59.8532 150.234L44.8455 99.5482C44.764 99.2726 44.9237 98.9846 45.2016 98.9048L68.1753 92.2519C68.2236 92.2379 68.2743 92.2305 68.3234 92.2305C68.4108 92.2305 68.4973 92.2527 68.5747 92.2946C68.697 92.3605 68.7885 92.4715 68.8276 92.604L83.8336 143.288C83.8736 143.421 83.8578 143.563 83.7904 143.684C83.7238 143.804 83.6115 143.895 83.4784 143.934L60.5047 150.586C60.4564 150.6 60.4073 150.606 60.3574 150.606Z" fill="#D9F2E0"/>
<path d="M68.3205 92.7501L83.3282 143.435L60.3545 150.088L45.3467 99.403L68.3205 92.7501ZM68.3213 91.7109C68.2231 91.7109 68.1241 91.7249 68.026 91.7529L45.0522 98.4058C44.7843 98.4832 44.5589 98.6625 44.4258 98.9044C44.2918 99.1463 44.261 99.4302 44.3392 99.6951L59.3461 150.38C59.4809 150.832 59.8994 151.127 60.3536 151.127C60.4518 151.127 60.5508 151.113 60.6498 151.085L83.6227 144.432C83.8898 144.354 84.116 144.175 84.2492 143.933C84.3831 143.691 84.4139 143.407 84.3365 143.143L69.328 92.458C69.194 92.0047 68.7755 91.7109 68.3213 91.7109Z" fill="white"/>
<path d="M77.3726 145.158L83.3219 143.435L81.4949 137.266C78.2337 138.376 76.3925 141.849 77.3726 145.158Z" fill="#42BE65"/>
<path d="M77.3801 145.158C76.4001 141.85 78.2412 138.377 81.5025 137.266L81.208 136.268C77.3901 137.541 75.2295 141.593 76.3718 145.451L77.3801 145.158Z" fill="white"/>
<path d="M63.1782 144.527C62.2074 144.001 61.1399 143.734 60.0626 143.734C59.5492 143.734 59.0334 143.796 58.5234 143.919L60.3504 150.088L66.3006 148.365C65.8122 146.714 64.7032 145.351 63.1782 144.527Z" fill="#42BE65"/>
<path d="M63.684 143.615C62.0034 142.706 60.0791 142.463 58.2305 142.92L58.5266 143.919C59.0358 143.796 59.5525 143.735 60.0658 143.735C61.1432 143.735 62.2089 144.001 63.1806 144.527C64.7056 145.351 65.8146 146.715 66.303 148.364L67.3105 148.073C66.7431 146.157 65.4552 144.574 63.684 143.615Z" fill="white"/>
<path d="M65.4895 98.3111C66.9247 99.087 68.5661 99.2993 70.1443 98.92L68.3174 92.75L62.3672 94.4729C62.8555 96.1225 63.9645 97.4859 65.4895 98.3111Z" fill="#42BE65"/>
<path d="M61.3594 94.7647C61.9268 96.681 63.2146 98.264 64.9859 99.2217C66.114 99.8322 67.352 100.143 68.6024 100.143C69.2156 100.142 69.832 100.068 70.4394 99.9178L70.144 98.9197C68.5658 99.299 66.9244 99.0868 65.4901 98.3109C63.9651 97.4857 62.8561 96.1223 62.3669 94.4727L61.3594 94.7647Z" fill="white"/>
<path d="M51.3009 97.6797L45.3516 99.4034L47.1777 105.573C50.4398 104.462 52.2801 100.987 51.3009 97.6797Z" fill="#42BE65"/>
<path d="M52.2987 97.3867L51.2912 97.6788C52.2704 100.986 50.4292 104.46 47.168 105.572L47.4633 106.569C51.2803 105.296 53.4409 101.244 52.2987 97.3867Z" fill="white"/>
<path d="M64.1643 128.421C62.5478 128.421 60.9371 127.895 59.6293 126.942C58.2782 125.954 57.3131 124.588 56.8397 122.991C55.6567 118.994 57.9812 114.792 62.022 113.622C62.7233 113.419 63.4463 113.316 64.1709 113.316C65.7874 113.316 67.3981 113.841 68.7051 114.796C70.0571 115.782 71.0221 117.148 71.4947 118.747C72.0679 120.682 71.8449 122.722 70.8657 124.492C69.8865 126.261 68.2708 127.548 66.3132 128.115C65.6119 128.318 64.8889 128.421 64.1643 128.421Z" fill="#42BE65"/>
<path d="M64.1814 113.834C67.2571 113.834 70.0933 115.824 71.0018 118.892C72.105 122.618 69.9444 126.525 66.1756 127.616C65.5092 127.809 64.837 127.901 64.1747 127.901C61.099 127.901 58.2628 125.911 57.3543 122.843C56.2511 119.117 58.4117 115.211 62.1797 114.12C62.8469 113.927 63.52 113.834 64.1814 113.834ZM64.1814 112.795C63.4068 112.795 62.6348 112.906 61.8852 113.122C60.8278 113.429 59.8635 113.93 59.0166 114.614C58.1996 115.275 57.5274 116.075 57.019 116.995C56.5107 117.914 56.1912 118.906 56.0698 119.942C55.9442 121.016 56.0373 122.091 56.3468 123.136C56.8527 124.844 57.8835 126.303 59.3286 127.358C60.0224 127.865 60.7895 128.258 61.6073 128.528C62.4384 128.801 63.302 128.939 64.1747 128.939C64.9493 128.939 65.7222 128.829 66.4709 128.613C67.5275 128.307 68.4926 127.805 69.3395 127.121C70.1565 126.46 70.8287 125.66 71.3371 124.741C71.8454 123.821 72.1649 122.829 72.2863 121.794C72.412 120.719 72.3188 119.645 72.0101 118.6C71.5035 116.892 70.4727 115.432 69.0284 114.377C68.3337 113.87 67.5666 113.476 66.748 113.206C65.9177 112.933 65.0541 112.795 64.1814 112.795Z" fill="white"/>
<path d="M63.8729 118.256L64.7839 117.937L65.7465 120.616C65.9287 120.506 66.0842 120.381 66.2132 120.239C66.343 120.098 66.4486 119.958 66.5285 119.82L65.6891 117.483L66.724 117.119L68.6467 122.477L67.6117 122.84L66.9911 121.111C66.9187 121.219 66.8222 121.343 66.7024 121.486C66.5826 121.63 66.417 121.765 66.204 121.895L66.62 123.051L65.709 123.371L65.333 122.324C65.0676 122.408 64.803 122.432 64.541 122.396C64.2781 122.36 64.0268 122.277 63.7864 122.147C63.5451 122.017 63.3271 121.842 63.1324 121.622C62.9378 121.402 62.783 121.157 62.6682 120.887L61.0675 123.807L59.8828 123.017L61.5151 120.455C61.6374 120.257 61.7489 120.071 61.8487 119.898C61.9486 119.727 62.0351 119.574 62.1066 119.439C62.189 119.282 62.263 119.137 62.3263 119.006L63.2572 119.09C63.2564 119.218 63.2647 119.336 63.2805 119.444C63.2963 119.553 63.3305 119.681 63.3829 119.828C63.5401 120.265 63.7531 120.576 64.0235 120.761C64.2922 120.946 64.5659 121.012 64.843 120.96L63.8729 118.256Z" fill="white"/>
<g opacity="0.999994">
<path d="M148.413 157.538C148.413 158.828 117.595 159.874 79.579 159.874C41.5631 159.874 10.7452 158.828 10.7452 157.538C10.7452 156.247 41.5631 155.199 79.579 155.199C117.595 155.199 148.413 156.247 148.413 157.538Z" fill="#8AC6F2"/>
<path d="M40.9158 156.769C38.9962 156.769 37.4213 155.079 37.4078 153L37.0985 107.516C37.0918 106.52 37.4398 105.575 38.0777 104.859C38.7375 104.118 39.6257 103.707 40.5779 103.701L44.2174 103.678C44.2351 103.676 44.2528 103.676 44.2705 103.675L55.9161 103.6C55.9245 103.599 55.9312 103.599 55.9396 103.599C55.9826 103.595 56.0374 103.591 56.0998 103.59L118.212 103.189C119.645 103.189 120.82 104.343 120.829 105.76L121.154 153.653C121.159 154.344 120.89 154.996 120.4 155.488C119.909 155.98 119.253 156.254 118.554 156.258L110.989 156.307V156.314L103.845 156.361C103.827 156.362 103.809 156.363 103.792 156.363L40.9158 156.769Z" fill="#2099F1"/>
<path d="M120.084 105.764C120.076 104.742 119.233 103.92 118.2 103.926L108.682 103.987C109.482 104.192 110.076 104.908 110.082 105.764L110.285 137.448C110.322 143.185 106.483 148.254 100.895 149.794C90.7568 152.586 71.8095 155.389 38.194 154.13L37.6606 156.865H112.027L112.201 155.562L118.549 155.522C119.583 155.515 120.416 154.68 120.408 153.657L120.084 105.764Z" fill="#0074C9"/>
<path d="M40.0672 153.626L39.758 108.143C39.747 106.455 40.9731 105.078 42.4966 105.068L46.1605 105.045C46.1706 105.045 46.1799 105.043 46.19 105.043L57.8575 104.968C57.9115 104.964 57.9645 104.958 58.0193 104.958L119.62 104.56C119.275 104.169 118.766 103.922 118.199 103.926L56.1048 104.327C56.05 104.328 55.9969 104.333 55.943 104.336L44.2746 104.412C44.2645 104.412 44.2553 104.413 44.2451 104.413L40.5812 104.438C39.0577 104.447 37.8316 105.823 37.8434 107.512L38.1527 152.996C38.1636 154.683 39.4083 156.042 40.9318 156.032L41.1526 156.031C40.4995 155.477 40.074 154.607 40.0672 153.626Z" fill="#8AC6F2"/>
<path d="M40.2954 122.685L53.1266 122.598C54.7024 122.598 56.1872 123.203 57.3062 124.3C58.4261 125.399 59.048 126.864 59.0598 128.424L59.0657 129.315C59.0766 130.882 58.4699 132.359 57.3568 133.475C56.2445 134.591 54.7588 135.212 53.1738 135.222L40.3847 135.311L40.2954 122.685Z" fill="#0074C9"/>
<path d="M53.1268 123.123C56.093 123.122 58.5064 125.49 58.5275 128.427L58.5342 129.317C58.5544 132.267 56.1528 134.676 53.1698 134.697L40.9133 134.782L40.8315 123.207L53.0881 123.123H53.1268ZM53.1268 122.07V123.123V122.07C53.1117 122.07 53.0957 122.07 53.0805 122.07L40.824 122.155L39.7597 122.163L39.7673 123.215L39.849 134.789L39.8566 135.841L40.9209 135.833L53.1774 135.749C54.904 135.737 56.5236 135.061 57.7362 133.844C58.9488 132.628 59.6094 131.018 59.5976 129.311L59.5909 128.421C59.5791 126.72 58.9008 125.125 57.6814 123.927C56.4621 122.729 54.8442 122.07 53.1268 122.07Z" fill="#0074C9"/>
<path d="M37.4204 122.699L50.2517 122.611C51.8283 122.611 53.3122 123.216 54.4313 124.314C55.5512 125.413 56.1731 126.877 56.1849 128.437L56.1908 129.328C56.2135 132.564 53.5709 135.215 50.2989 135.238L37.5098 135.325L37.4204 122.699Z" fill="#2099F1"/>
<path d="M50.2517 123.138C53.217 123.138 55.6312 125.505 55.6523 128.443L55.6582 129.333C55.6792 132.283 53.2777 134.691 50.2946 134.712L38.0373 134.796L37.9555 123.223L50.2129 123.138C50.2255 123.138 50.2382 123.138 50.2517 123.138ZM50.2517 122.086V123.138V122.086H50.2053L37.9479 122.171L36.8845 122.178L36.8921 123.23L36.9738 134.804L36.9806 135.856L38.0448 135.849L50.3022 135.765C52.0288 135.752 53.6476 135.075 54.8602 133.86C56.0728 132.644 56.7343 131.033 56.7225 129.325L56.7157 128.435C56.7039 126.735 56.0256 125.14 54.8054 123.942C53.5869 122.745 51.969 122.086 50.2517 122.086Z" fill="#0074C9"/>
<path d="M55.6523 128.442C55.6312 125.492 53.1959 123.118 50.2129 123.139L37.9564 123.222L37.9606 123.854L38.0381 134.797L39.7403 134.785L39.6687 124.727C39.6653 124.238 40.063 123.839 40.5568 123.835L50.2129 123.77C53.1959 123.749 55.6321 126.124 55.6523 129.074L55.6548 129.507C55.6565 129.45 55.659 129.391 55.6582 129.333L55.6523 128.442Z" fill="#8AC6F2"/>
<path d="M49.3315 127.086C50.1287 127.086 50.7801 127.9 50.7868 128.909C50.7936 129.922 50.1506 130.748 49.3492 130.753H49.3408C48.5437 130.753 47.8923 129.939 47.8855 128.929C47.878 127.917 48.5226 127.092 49.3231 127.086H49.3315ZM49.3315 126.033H49.3155C48.6043 126.038 47.9277 126.386 47.4583 126.987C47.0429 127.521 46.817 128.213 46.8213 128.937C46.8263 129.657 47.0614 130.345 47.4819 130.872C47.9555 131.465 48.633 131.805 49.3408 131.805H49.3568C50.068 131.8 50.7447 131.453 51.2132 130.852C51.6295 130.318 51.8562 129.626 51.8503 128.902C51.8452 128.181 51.611 127.493 51.1905 126.967C50.7169 126.373 50.0394 126.033 49.3315 126.033Z" fill="#0074C9"/>
<path d="M48.311 129.35C48.3034 128.338 48.9472 127.512 49.7485 127.507C49.9912 127.505 50.2204 127.579 50.4227 127.712C50.1539 127.326 49.7612 127.083 49.323 127.086C48.5216 127.092 47.8778 127.917 47.8854 128.929C47.8905 129.635 48.2107 130.244 48.675 130.548C48.4517 130.228 48.3143 129.81 48.311 129.35Z" fill="#8AC6F2"/>
<path d="M44.8012 151.251L48.6698 151.225C48.8923 151.223 49.0743 151.45 49.076 151.731C49.0785 152.013 48.899 152.241 48.6766 152.243L44.8088 152.271C44.5863 152.273 44.4034 152.045 44.4017 151.765C44.4001 151.483 44.5787 151.253 44.8012 151.251Z" fill="white"/>
<path d="M37.378 151.251L41.2467 151.225C41.4692 151.223 41.6512 151.45 41.6529 151.731C41.6554 152.013 41.4759 152.241 41.2534 152.243L37.3856 152.271C37.1632 152.273 36.9803 152.045 36.9786 151.765C36.9769 151.483 37.1556 151.253 37.378 151.251Z" fill="white"/>
<path d="M51.8933 151.204L55.7611 151.178C55.9835 151.176 56.1664 151.403 56.1681 151.684C56.1698 151.965 55.9911 152.194 55.7687 152.196L51.9 152.223C51.6775 152.224 51.4955 151.998 51.4938 151.716C51.4913 151.435 51.6708 151.206 51.8933 151.204Z" fill="white"/>
<path d="M58.9851 151.154L62.8537 151.127C63.0762 151.125 63.2582 151.352 63.2599 151.634C63.2624 151.915 63.0829 152.144 62.8605 152.145L58.9927 152.174C58.7702 152.175 58.5873 151.948 58.5856 151.667C58.584 151.385 58.7626 151.155 58.9851 151.154Z" fill="white"/>
<path d="M66.0778 151.105L69.9456 151.078C70.1681 151.076 70.351 151.303 70.3527 151.585C70.3543 151.866 70.1757 152.095 69.9532 152.096L66.0846 152.123C65.8621 152.125 65.6801 151.898 65.6784 151.617C65.6759 151.336 65.8554 151.106 66.0778 151.105Z" fill="white"/>
<path d="M73.1696 151.056L77.0383 151.029C77.2608 151.028 77.4428 151.254 77.4445 151.536C77.447 151.818 77.2675 152.047 77.045 152.048L73.1772 152.076C72.9548 152.078 72.7719 151.851 72.7702 151.569C72.7685 151.288 72.9472 151.058 73.1696 151.056Z" fill="white"/>
<path d="M80.2615 151.007L84.1293 150.98C84.3518 150.979 84.5346 151.205 84.5363 151.487C84.538 151.769 84.3593 151.997 84.1369 151.999L80.2682 152.026C80.0458 152.027 79.8637 151.801 79.8621 151.52C79.8595 151.238 80.039 151.009 80.2615 151.007Z" fill="white"/>
<path d="M87.3533 150.958L91.222 150.932C91.4444 150.93 91.6264 151.157 91.6281 151.438C91.6306 151.719 91.4512 151.948 91.2287 151.95L87.3609 151.977C87.1384 151.978 86.9556 151.752 86.9539 151.47C86.9522 151.189 87.1308 150.959 87.3533 150.958Z" fill="white"/>
<path d="M94.446 150.909L98.3138 150.883C98.5371 150.881 98.7191 151.108 98.7208 151.39C98.7233 151.671 98.5438 151.9 98.3214 151.901L94.4519 151.93C94.2294 151.931 94.0474 151.704 94.0457 151.423C94.0432 151.141 94.2235 150.911 94.446 150.909Z" fill="white"/>
<path d="M101.938 150.859L105.807 150.832C106.029 150.83 106.211 151.057 106.213 151.339C106.215 151.62 106.036 151.849 105.814 151.85L101.946 151.878C101.723 151.879 101.54 151.652 101.539 151.371C101.537 151.09 101.716 150.86 101.938 150.859Z" fill="white"/>
<path d="M108.838 150.81L112.707 150.783C112.929 150.782 113.111 151.008 113.113 151.29C113.115 151.571 112.936 151.8 112.714 151.802L108.846 151.828C108.623 151.83 108.441 151.603 108.438 151.322C108.436 151.041 108.615 150.812 108.838 150.81Z" fill="white"/>
<path d="M115.785 150.763L119.654 150.736C119.876 150.735 120.058 150.961 120.06 151.243C120.062 151.524 119.883 151.753 119.661 151.755L115.792 151.781C115.57 151.783 115.388 151.556 115.385 151.275C115.384 150.994 115.562 150.765 115.785 150.763Z" fill="white"/>
<path d="M44.332 108.96L48.2007 108.934C48.4231 108.932 48.6051 109.159 48.6068 109.44C48.6093 109.722 48.4307 109.95 48.2082 109.952L44.3396 109.979C44.1171 109.98 43.9351 109.754 43.9326 109.473C43.9309 109.191 44.1095 108.962 44.332 108.96Z" fill="white"/>
<path d="M36.9095 108.96L40.7774 108.934C40.9998 108.932 41.1827 109.159 41.1844 109.44C41.1861 109.722 41.0074 109.95 40.785 109.952L36.9163 109.979C36.6938 109.98 36.5118 109.754 36.5101 109.473C36.5076 109.191 36.6871 108.962 36.9095 108.96Z" fill="white"/>
<path d="M51.4238 108.913L55.2925 108.887C55.515 108.885 55.697 109.112 55.6987 109.393C55.7012 109.675 55.5217 109.903 55.2993 109.904L51.4306 109.933C51.209 109.934 51.0261 109.708 51.0244 109.426C51.0227 109.144 51.2014 108.914 51.4238 108.913Z" fill="white"/>
<path d="M58.5156 108.863L62.3843 108.836C62.6068 108.834 62.7888 109.061 62.7905 109.343C62.793 109.624 62.6144 109.853 62.3919 109.854L58.5232 109.882C58.3008 109.883 58.1188 109.656 58.1162 109.375C58.1145 109.093 58.2932 108.864 58.5156 108.863Z" fill="white"/>
<path d="M65.6084 108.814L69.4771 108.787C69.6995 108.785 69.8816 109.012 69.8832 109.294C69.8858 109.575 69.7063 109.804 69.4838 109.805L65.6152 109.832C65.3935 109.834 65.2107 109.607 65.209 109.325C65.2073 109.045 65.386 108.815 65.6084 108.814Z" fill="white"/>
<path d="M72.7 108.764L76.5678 108.738C76.7903 108.737 76.9732 108.963 76.9748 109.245C76.9765 109.527 76.7979 109.754 76.5754 109.756L72.7068 109.784C72.4843 109.786 72.3023 109.558 72.3006 109.277C72.2981 108.996 72.4776 108.766 72.7 108.764Z" fill="white"/>
<path d="M79.7918 108.716L83.6605 108.689C83.883 108.688 84.065 108.914 84.0667 109.196C84.0692 109.477 83.8897 109.706 83.6672 109.708L79.7994 109.734C79.5769 109.736 79.3941 109.509 79.3924 109.228C79.3907 108.947 79.5694 108.718 79.7918 108.716Z" fill="white"/>
<path d="M86.8846 108.666L90.7524 108.641C90.9749 108.639 91.1577 108.866 91.1594 109.147C91.1611 109.429 90.9825 109.656 90.76 109.658L86.8913 109.686C86.6689 109.688 86.4868 109.461 86.4852 109.18C86.4826 108.898 86.6621 108.668 86.8846 108.666Z" fill="white"/>
<path d="M93.9764 108.618L97.8442 108.592C98.0675 108.59 98.2495 108.817 98.2512 109.098C98.2538 109.38 98.0751 109.609 97.8518 109.61L93.984 109.638C93.7615 109.639 93.5787 109.412 93.577 109.131C93.5753 108.849 93.7539 108.62 93.9764 108.618Z" fill="white"/>
<path d="M101.469 108.566L105.337 108.539C105.56 108.537 105.742 108.764 105.743 109.046C105.746 109.327 105.567 109.556 105.345 109.557L101.476 109.584C101.254 109.586 101.072 109.359 101.069 109.077C101.067 108.797 101.246 108.567 101.469 108.566Z" fill="white"/>
<path d="M108.37 108.518L112.239 108.492C112.46 108.491 112.642 108.717 112.645 108.999C112.646 109.281 112.468 109.509 112.246 109.51L108.378 109.538C108.154 109.54 107.972 109.313 107.971 109.031C107.968 108.75 108.147 108.52 108.37 108.518Z" fill="white"/>
<path d="M115.317 108.469L119.186 108.443C119.407 108.442 119.589 108.668 119.592 108.95C119.594 109.232 119.415 109.46 119.192 109.461L115.325 109.489C115.101 109.491 114.919 109.264 114.918 108.983C114.915 108.701 115.094 108.471 115.317 108.469Z" fill="white"/>
<path d="M148.413 157.497H10.745C10.3338 157.497 10.0001 157.167 10.0001 156.76C10.0001 156.353 10.3338 156.023 10.745 156.023H148.413C148.824 156.023 149.157 156.353 149.157 156.76C149.157 157.167 148.824 157.497 148.413 157.497Z" fill="#0074C9"/>
<path d="M118.212 103.927C119.24 103.927 120.076 104.747 120.084 105.765L120.409 153.658C120.417 154.681 119.584 155.515 118.549 155.521L110.239 155.576V155.583L103.816 155.625C103.806 155.625 103.797 155.626 103.787 155.626L40.9325 156.033H40.9157C39.3997 156.033 38.1644 154.676 38.1534 152.995L37.8433 107.512C37.8315 105.824 39.0585 104.447 40.582 104.437L44.2467 104.414C44.256 104.414 44.2661 104.412 44.2754 104.412L55.9437 104.337C55.9977 104.333 56.0508 104.328 56.1055 104.327L118.199 103.927H118.212ZM118.212 102.453H118.19L56.0954 102.854C56.0095 102.855 55.9361 102.861 55.8873 102.864L44.2661 102.939C44.2391 102.939 44.2147 102.94 44.1936 102.941L40.5727 102.965C39.4056 102.972 38.3211 103.472 37.5198 104.372C36.7605 105.225 36.3468 106.343 36.3544 107.522L36.6628 153.005C36.6703 154.179 37.0976 155.288 37.8627 156.13C38.67 157.017 39.7545 157.506 40.9157 157.506H40.9435L103.798 157.099C103.825 157.099 103.847 157.098 103.868 157.097L110.25 157.056L111.737 157.046V157.038L118.559 156.995C119.457 156.989 120.3 156.637 120.931 156.006C121.561 155.373 121.905 154.536 121.899 153.648L121.574 105.755C121.567 104.872 121.214 104.042 120.58 103.419C119.947 102.796 119.106 102.453 118.212 102.453Z" fill="#0074C9"/>
</g>
<path d="M62 32.1779C62 22.6908 69.6908 15 79.1779 15H79.5H79.8221C89.3092 15 97 22.6908 97 32.1779C97 41.665 89.3092 49.3558 79.8221 49.3558H79.5H79.1779C69.6908 49.3558 62 41.665 62 32.1779Z" fill="#42BE65"/>
<path d="M72.5017 33.5249L74.8988 36.824C75.6974 37.9232 77.3362 37.9232 78.1348 36.824L86.5017 25.3086" stroke="white" stroke-width="4" stroke-linecap="round"/>
</g>
<defs>
<clipPath id="clip0_4982_61832">
<rect width="160" height="160" fill="white"/>
</clipPath>
</defs>
</svg>
