<svg width="48" height="48" viewBox="0 0 48 48" fill="none" xmlns="http://www.w3.org/2000/svg">
<path d="M46.4201 30.0368C46.7783 28.4253 46.9688 26.7506 46.9688 25.0312C46.9688 12.3459 36.6853 2.0625 24 2.0625C11.3147 2.0625 1.03125 12.3459 1.03125 25.0312C1.03125 31.0449 3.34341 36.5179 7.12594 40.6122L46.4201 30.0368Z" fill="#55BF28"/>
<path d="M29.0055 47.4514L40.875 22.3496V5.625L31.6687 3.37406L31.6659 3.37313L27.2316 2.28844H27.2306L25.5797 1.88438C20.46 0.632812 15.2081 0 9.9375 0C8.38406 0 7.125 1.25906 7.125 2.8125V40.6125C11.3203 45.1556 17.3278 48 24 48C25.7195 48 27.3943 47.8097 29.0058 47.4516L29.0055 47.4514Z" fill="#D3DCFB"/>
<path d="M40.875 5.625V9.375H15.5625C14.0091 9.375 12.75 10.6341 12.75 12.1875V45.06C10.6472 43.8769 8.74969 42.3722 7.125 40.6125V2.8125C7.125 2.03625 7.44 1.33312 7.94906 0.824062C8.45813 0.315 9.16125 0 9.9375 0C15.2081 0 20.46 0.632812 25.5797 1.88438L27.2316 2.28844L31.6659 3.37313L40.875 5.625Z" fill="#BEC8F7"/>
<path d="M35.4844 31.4062H12.5156C12.1273 31.4062 11.8125 31.0914 11.8125 30.7031C11.8125 30.3148 12.1273 30 12.5156 30H35.4844C35.8727 30 36.1875 30.3148 36.1875 30.7031C36.1875 31.0914 35.8727 31.4062 35.4844 31.4062Z" fill="#BEC8F7"/>
<path d="M15.1282 30.7031C15.1282 30.3148 15.4431 30 15.8314 30H12.5156C12.1273 30 11.8125 30.3148 11.8125 30.7031C11.8125 31.0914 12.1273 31.4062 12.5156 31.4062H15.8314C15.4431 31.4062 15.1282 31.0914 15.1282 30.7031Z" fill="#A2B6F4"/>
<path d="M35.4844 27.1875H12.5156C12.1273 27.1875 11.8125 26.8727 11.8125 26.4844C11.8125 26.0961 12.1273 25.7812 12.5156 25.7812H35.4844C35.8727 25.7812 36.1875 26.0961 36.1875 26.4844C36.1875 26.8727 35.8727 27.1875 35.4844 27.1875Z" fill="#BEC8F7"/>
<path d="M15.1282 26.4844C15.1282 26.0961 15.4431 25.7812 15.8314 25.7812H12.5156C12.1273 25.7812 11.8125 26.0961 11.8125 26.4844C11.8125 26.8727 12.1273 27.1875 12.5156 27.1875H15.8314C15.4431 27.1875 15.1282 26.8727 15.1282 26.4844Z" fill="#A2B6F4"/>
<path d="M35.4844 22.9688H12.5156C12.1273 22.9688 11.8125 22.6539 11.8125 22.2656C11.8125 21.8773 12.1273 21.5625 12.5156 21.5625H35.4844C35.8727 21.5625 36.1875 21.8773 36.1875 22.2656C36.1875 22.6539 35.8727 22.9688 35.4844 22.9688Z" fill="#BEC8F7"/>
<path d="M15.1282 22.2656C15.1282 21.8773 15.4431 21.5625 15.8314 21.5625H12.5156C12.1273 21.5625 11.8125 21.8773 11.8125 22.2656C11.8125 22.6539 12.1273 22.9688 12.5156 22.9688H15.8314C15.4431 22.9688 15.1282 22.6539 15.1282 22.2656Z" fill="#A2B6F4"/>
<path d="M35.4844 35.625H12.5156C12.1273 35.625 11.8125 35.3102 11.8125 34.9219C11.8125 34.5336 12.1273 34.2188 12.5156 34.2188H35.4844C35.8727 34.2188 36.1875 34.5336 36.1875 34.9219C36.1875 35.3102 35.8727 35.625 35.4844 35.625Z" fill="#BEC8F7"/>
<path d="M15.1282 34.9219C15.1282 34.5336 15.4431 34.2188 15.8314 34.2188H12.5156C12.1273 34.2188 11.8125 34.5336 11.8125 34.9219C11.8125 35.3102 12.1273 35.625 12.5156 35.625H15.8314C15.4431 35.625 15.1282 35.3102 15.1282 34.9219Z" fill="#A2B6F4"/>
<path d="M35.4844 39.8438H12.5156C12.1273 39.8438 11.8125 39.5289 11.8125 39.1406C11.8125 38.7523 12.1273 38.4375 12.5156 38.4375H35.4844C35.8727 38.4375 36.1875 38.7523 36.1875 39.1406C36.1875 39.5289 35.8727 39.8438 35.4844 39.8438Z" fill="#BEC8F7"/>
<path d="M30.4904 44.0625H17.5088C17.1205 44.0625 16.8057 43.7477 16.8057 43.3594C16.8057 42.9711 17.1205 42.6562 17.5088 42.6562H30.4904C30.8787 42.6562 31.1935 42.9711 31.1935 43.3594C31.1935 43.7477 30.8787 44.0625 30.4904 44.0625Z" fill="#BEC8F7"/>
<path d="M19.1839 43.3594C19.1839 42.9711 19.4987 42.6562 19.887 42.6562H17.5088C17.1205 42.6562 16.8057 42.9711 16.8057 43.3594C16.8057 43.7477 17.1205 44.0625 17.5088 44.0625H19.887C19.4987 44.0625 19.1839 43.7477 19.1839 43.3594Z" fill="#A2B6F4"/>
<path d="M35.9014 8.67188C35.5131 8.67188 35.1983 8.98659 35.1983 9.375V13.6876L31.9422 8.98688C31.7671 8.73413 31.448 8.62397 31.1544 8.71613C30.8609 8.80791 30.661 9.07969 30.661 9.38719V15.9375C30.661 16.3259 30.9758 16.6406 31.3641 16.6406C31.7524 16.6406 32.0673 16.3259 32.0673 15.9375V11.6372L35.3234 16.3379C35.4573 16.5311 35.6751 16.6407 35.9015 16.6407C35.9714 16.6407 36.042 16.6303 36.1112 16.6086C36.4047 16.5168 36.6046 16.245 36.6046 15.9375V9.375C36.6046 8.98659 36.2898 8.67188 35.9014 8.67188Z" fill="#FF4155"/>
<path d="M19.5282 8.67188C17.7835 8.67188 16.3641 10.4592 16.3641 12.6562C16.3641 14.8533 17.7835 16.6406 19.5282 16.6406C21.2729 16.6406 22.6923 14.8533 22.6923 12.6562C22.6923 10.4592 21.2729 8.67188 19.5282 8.67188ZM19.5282 15.2344C18.5753 15.2344 17.7704 14.0537 17.7704 12.6562C17.7704 11.2588 18.5753 10.0781 19.5282 10.0781C20.4811 10.0781 21.286 11.2588 21.286 12.6562C21.286 14.0537 20.4811 15.2344 19.5282 15.2344Z" fill="#FF4155"/>
<path d="M27.241 9.24412C27.239 9.23822 27.237 9.23231 27.2348 9.22641C27.112 8.88947 26.8049 8.67197 26.4523 8.67197H26.4515C26.0986 8.67234 25.7914 8.8905 25.6692 9.228C25.6674 9.23287 25.6657 9.23775 25.664 9.24262L23.4793 15.7127C23.3551 16.0807 23.5526 16.4796 23.9206 16.6038C23.9952 16.6291 24.0709 16.6409 24.1456 16.6409C24.4389 16.6409 24.7126 16.4558 24.8117 16.1625L25.1943 15.0292H27.6939L28.0725 16.1606C28.1957 16.5289 28.5938 16.7276 28.9623 16.6042C29.3306 16.4811 29.5292 16.0826 29.406 15.7144L27.241 9.24412ZM25.6691 13.623L26.4497 11.3112L27.2233 13.623H25.6691Z" fill="#FF4155"/>
<path d="M15.3799 15.2288H15.377C14.6051 15.2318 13.5029 15.2355 12.8016 15.2343V9.375C12.8016 8.98659 12.4868 8.67188 12.0985 8.67188C11.7102 8.67188 11.3954 8.98659 11.3954 9.375V15.932C11.3954 16.288 11.6615 16.5879 12.0152 16.6301C12.0496 16.6343 12.1038 16.6407 13.1152 16.6407C13.6078 16.6407 14.3276 16.6391 15.3826 16.635C15.7709 16.6334 16.0845 16.3175 16.083 15.9292C16.0814 15.5419 15.7669 15.2288 15.3799 15.2288Z" fill="#FF4155"/>
<path d="M40.875 0C42.4283 0 43.6875 1.25916 43.6875 2.8125C43.6875 4.36584 42.4283 5.625 40.875 5.625H15.5625C14.0092 5.625 12.75 4.36584 12.75 2.8125C12.75 1.25916 11.4908 0 9.9375 0H40.875Z" fill="#E9EFFF"/>
<path d="M20.25 2.8125C20.25 1.25916 18.9908 0 17.4375 0H9.9375C11.4877 0 12.745 1.25428 12.75 2.80341C12.7549 4.35516 14.0107 5.625 15.5625 5.625H23.0625C21.5092 5.625 20.25 4.36584 20.25 2.8125Z" fill="#D3DCFB"/>
<path d="M45.0893 34.1394C45.6554 32.8304 46.1041 31.4587 46.4201 30.0368C44.7292 24.168 39.3193 19.875 32.9062 19.875C25.1397 19.875 18.8438 26.171 18.8438 33.9375C18.8438 40.3506 23.1368 45.7604 29.0056 47.4514C30.4276 47.1353 31.7995 46.6866 33.1088 46.1203L45.0893 34.1394Z" fill="#FFDD40"/>
<path d="M36.1431 43.086C34.0338 40.6268 32.7585 37.4315 32.7585 33.9375C32.7585 28.7021 35.6197 24.1353 39.8636 21.7145C37.8119 20.5441 35.4373 19.875 32.9062 19.875C25.1397 19.875 18.8438 26.171 18.8438 33.9375C18.8438 40.3506 23.1367 45.7604 29.0055 47.4514C30.4275 47.1353 31.7994 46.6867 33.1086 46.1205L36.1431 43.086Z" fill="#FFC839"/>
<path d="M45.0938 33.9375C45.0938 27.2173 39.6265 21.75 32.9062 21.75C26.186 21.75 20.7188 27.2173 20.7188 33.9375C20.7188 40.6577 26.186 46.125 32.9062 46.125C32.9731 46.125 33.0397 46.1235 33.1063 46.1225C38.4692 43.8038 42.7726 39.5004 45.0912 34.1376C45.0922 34.0709 45.0938 34.0043 45.0938 33.9375Z" fill="#FFC839"/>
<path d="M38.0952 22.9116C36.5199 22.1672 34.761 21.75 32.9062 21.75C26.186 21.75 20.7188 27.2173 20.7188 33.9375C20.7188 40.6577 26.186 46.125 32.9062 46.125C32.9734 46.125 33.04 46.1232 33.107 46.1222C34.4722 45.5318 35.7688 44.813 36.9817 43.9806C34.3764 41.4285 32.7586 37.8727 32.7586 33.9375C32.7585 29.4681 34.8448 25.4873 38.0952 22.9116Z" fill="#FFB332"/>
<path d="M41.8125 35.3438C42.5892 35.3438 43.2188 34.7142 43.2188 33.9375C43.2188 33.1608 42.5892 32.5312 41.8125 32.5312C41.0358 32.5312 40.4062 33.1608 40.4062 33.9375C40.4062 34.7142 41.0358 35.3438 41.8125 35.3438Z" fill="#FFDD40"/>
<path d="M24 35.3438C24.7767 35.3438 25.4062 34.7142 25.4062 33.9375C25.4062 33.1608 24.7767 32.5312 24 32.5312C23.2233 32.5312 22.5938 33.1608 22.5938 33.9375C22.5938 34.7142 23.2233 35.3438 24 35.3438Z" fill="#FFC839"/>
<path d="M37.7277 29.116C37.7277 28.4503 37.1881 27.9107 36.5223 27.9107H34.1117V26.7053C34.1117 26.0396 33.572 25.5 32.9063 25.5C32.2406 25.5 31.701 26.0396 31.701 26.7053V27.9107C29.7039 27.9107 28.0849 29.5297 28.0849 31.5267C28.0849 33.5238 29.7039 35.1427 31.701 35.1427H34.1117C34.7774 35.1427 35.317 35.6824 35.317 36.3481C35.317 37.0138 34.7774 37.5534 34.1117 37.5534H29.2902C28.6245 37.5534 28.0848 38.0931 28.0848 38.7588C28.0848 39.4245 28.6245 39.9641 29.2902 39.9641H31.7009V41.1695C31.7009 41.8352 32.2405 42.3748 32.9062 42.3748C33.5719 42.3748 34.1116 41.8352 34.1116 41.1695V39.9641H34.2196C36.1569 39.9643 37.7276 38.3939 37.7276 36.4566V36.3658C37.7276 34.3509 36.1085 32.7319 34.1114 32.732C33.2402 32.732 32.3692 32.732 31.7003 32.732C31.0346 32.732 30.4954 32.1923 30.4954 31.5266C30.4954 30.8609 31.0351 30.3213 31.7008 30.3213H36.5222C37.188 30.3215 37.7277 29.7818 37.7277 29.116Z" fill="#FFDD40"/>
<path d="M31.7009 37.5535H29.2902C28.6245 37.5535 28.0848 38.0932 28.0848 38.7589C28.0848 39.4246 28.6245 39.9642 29.2902 39.9642H31.7009C31.0352 39.9642 30.4955 39.4246 30.4955 38.7589C30.4955 38.0932 31.0352 37.5535 31.7009 37.5535Z" fill="#FFC839"/>
<path d="M31.7009 27.9107C29.7038 27.9107 28.0848 29.5297 28.0848 31.5267C28.0848 33.5238 29.7038 35.1427 31.7009 35.1427C31.0352 35.1427 30.4955 34.6031 30.4955 33.9374C30.4955 33.2717 31.0352 32.7321 31.7009 32.7321C31.7007 32.7321 31.7006 32.7321 31.7004 32.7321C31.0347 32.7321 30.4955 32.1924 30.4955 31.5267C30.4955 30.861 31.0352 30.3214 31.7009 30.3214C31.0352 30.3214 30.4955 29.7818 30.4955 29.116C30.4955 28.4504 31.0352 27.9107 31.7009 27.9107Z" fill="#FFC839"/>
<path d="M15.1282 39.1406C15.1282 38.7523 15.4431 38.4375 15.8314 38.4375H12.5156C12.1273 38.4375 11.8125 38.7523 11.8125 39.1406C11.8125 39.5289 12.1273 39.8438 12.5156 39.8438H15.8314C15.4431 39.8438 15.1282 39.5289 15.1282 39.1406Z" fill="#A2B6F4"/>
</svg>
