<svg width="16" height="16" viewBox="0 0 16 16" fill="none" xmlns="http://www.w3.org/2000/svg">
<path d="M13 6.90909C13 10.7273 8 14 8 14C8 14 3 10.7273 3 6.90909C3 5.60712 3.52678 4.35847 4.46447 3.43784C5.40215 2.51721 6.67392 2 8 2C9.32608 2 10.5979 2.51721 11.5355 3.43784C12.4732 4.35847 13 5.60712 13 6.90909Z" stroke="white" stroke-linecap="round" stroke-linejoin="round"/>
<path d="M7.99992 8.54568C8.92039 8.54568 9.66658 7.81305 9.66658 6.90931C9.66658 6.00557 8.92039 5.27295 7.99992 5.27295C7.07944 5.27295 6.33325 6.00557 6.33325 6.90931C6.33325 7.81305 7.07944 8.54568 7.99992 8.54568Z" stroke="white" stroke-linecap="round" stroke-linejoin="round"/>
</svg>
