<svg width="146" height="132" viewBox="0 0 146 132" fill="none" xmlns="http://www.w3.org/2000/svg">
<g clip-path="url(#clip0_1_1856)">
<path d="M11.9946 60.0503C50.1808 -10.1404 97.8793 0.589847 97.8793 0.589847C128.442 6.25002 117.457 20.1426 133.081 40.486C148.705 60.8294 151.843 86.0137 133.081 111.381C114.319 136.749 79.8532 134.801 68.8345 127.68C68.8345 127.68 56.4748 121.481 44.1892 124.512C31.9037 127.543 17.6837 127.76 11.0017 121.917C4.31967 116.073 -10.5052 101.413 11.9946 60.0617V60.0503Z" fill="#F2F9FF"/>
</g>
<path d="M63.3244 19.316C63.3244 19.316 63.1808 19.3206 62.9391 19.3546C62.6974 19.3886 62.5577 19.4212 62.5577 19.4212C60.6572 19.8178 56.0147 21.639 57.7862 29.9153L64.2301 28.5406L70.8033 28.0859C70.2249 19.6418 65.2602 19.1709 63.3244 19.316Z" fill="#CCDDEE"/>
<path fill-rule="evenodd" clip-rule="evenodd" d="M62.7463 19.3925C62.9909 19.3589 63.1362 19.3544 63.1362 19.3544C63.6204 19.3189 64.2919 19.3208 65.0374 19.4697C65.035 19.4703 65.0338 19.4705 65.0338 19.4705C63.1543 19.8538 58.6245 21.5828 60.0954 29.3043L57.5339 29.8382C55.7398 21.6514 60.4373 19.8505 62.3604 19.4583C62.3604 19.4583 62.5017 19.4261 62.7463 19.3925Z" fill="#BCD1E5"/>
<path d="M119.695 86.9033C119.478 85.8324 118.646 84.931 117.298 84.2006L117.359 84.1868C107.304 78.3185 96.3625 61.4997 90.1086 43.5893C85.3424 29.9397 74.8688 26.991 68.7257 26.4939C66.5744 26.3195 61.309 27.5337 59.6801 28.426C54.2454 31.4027 45.7416 38.4204 46.6694 52.9333C47.8835 71.9278 44.3726 91.8583 37.4321 101.38L37.5365 101.357C36.5836 102.582 36.1708 103.749 36.3898 104.822C37.5814 110.708 57.196 111.47 80.1984 106.522C103.203 101.574 120.887 92.7916 119.695 86.9059L119.695 86.9033Z" fill="#CCDDEE"/>
<path d="M105.87 38.8809C104.617 30.4928 95.8366 24.3931 87.3976 26.0038C85.3782 26.3908 83.5166 27.139 81.7036 28.0574C81.5471 28.1865 81.4 28.3248 81.2343 28.4401C76.267 31.8922 73.852 36.5817 74.0916 42.5934C74.3424 48.84 78.655 54.4552 84.7066 56.5603C87.2712 57.4523 89.9025 57.633 92.5861 57.2797C92.7844 57.2311 92.9803 57.1802 93.1785 57.1362C101.898 55.2259 107.179 47.6303 105.872 38.8786L105.87 38.8809Z" fill="#E8F2FB"/>
<path d="M90.5576 47.541C93.6972 47.5369 96.0707 45.2083 96.079 41.0939C96.0873 36.9795 93.7232 34.6571 90.5836 34.6611C87.4628 34.6652 85.0893 36.9938 85.081 41.1082C85.0727 45.2226 87.4368 47.545 90.5576 47.541ZM90.5617 45.5195C88.7757 45.5219 87.5377 44.1282 87.5438 41.105C87.5499 38.0818 88.7935 36.6849 90.5795 36.6826C92.3843 36.6802 93.6223 38.0739 93.6162 41.0971C93.6101 44.1203 92.3665 45.5172 90.5617 45.5195Z" fill="#2099F1"/>
<path d="M76.1698 87.8548C55.0892 92.3904 38.7177 99.6276 39.6077 104.019C40.4953 108.414 58.3055 108.297 79.389 103.764C100.47 99.2306 116.841 91.9909 115.951 87.5993C115.061 83.2053 97.2503 83.3192 76.1698 87.8548Z" fill="#A3BADA"/>
<path d="M76.1699 87.8548C56.4586 92.0943 40.8687 98.6983 39.6506 103.13C45.8923 99.4019 57.6738 95.2741 71.4748 92.3057C92.5557 87.7727 110.366 87.6587 111.256 92.0503C111.314 92.3349 111.296 92.6329 111.214 92.9424C114.506 90.9742 116.259 89.1186 115.952 87.6019C115.061 83.2078 97.2509 83.3218 76.1703 87.8574L76.1699 87.8548Z" fill="#8FA4BC"/>
<path d="M75.4393 87.9212C72.447 88.5538 69.5402 89.2349 66.7482 89.9495C66.8054 93.8271 68.825 97.5803 72.327 99.5666C77.436 102.464 83.7631 100.501 86.4568 95.1877C87.9782 92.187 88.016 88.7615 86.8455 85.8252C83.1935 86.3908 79.3663 87.0912 75.4367 87.9215L75.4393 87.9212Z" fill="white"/>
<path d="M41.4379 104.976C41.2218 103.905 41.6343 102.735 42.5846 101.511L43.1239 100.58C50.064 91.0559 52.9316 72.0812 51.7175 53.0868C50.7923 38.5736 59.2939 31.5587 64.7282 28.5794C66.1209 27.8162 68.8681 27.0026 71.3573 26.8393C70.4184 26.6707 69.5322 26.5594 68.7232 26.4943C66.572 26.3199 61.3066 27.5341 59.6777 28.4264C54.243 31.4031 45.7391 38.4208 46.6669 52.9337C47.881 71.9281 45.0679 91.1066 38.1274 100.628L37.534 101.358C36.7191 102.474 36.1683 103.75 36.3873 104.823C36.9599 107.647 41.772 109.29 49.1657 109.692C43.9152 108.997 41.9075 107.291 41.4382 104.978L41.4379 104.976Z" fill="#BCD1E5"/>
<defs>
<clipPath id="clip0_1_1856">
<rect width="146" height="132" fill="white"/>
</clipPath>
</defs>
</svg>
