<svg xmlns="http://www.w3.org/2000/svg" width="149.652" height="109.723" viewBox="0 0 149.652 109.723">
    <g transform="translate(.002 .018)">
        <path data-name="Path 31367" d="m172.014 77.354-16.859 39-5.768 13.346a12.152 12.152 0 0 1-11.218 7.159h-80.13a12.154 12.154 0 0 1-11.217-7.159l-.8-1.862-21.828-50.484a11.307 11.307 0 0 1 5.19-14.44l5.294-2.891 3.028-1.654 15.183-8.293 4.422-2.416 5.7-3.114L69.507 41l4.637-2.531L85.432 32.3l2.59-1.412 3.942-2.154.11-.058a12.645 12.645 0 0 1 12.066 0l20.043 10.952 6.433 3.515 6.6 3.606 4.579 2.5 10.6 5.785 8.485 4.636 5.942 3.244a11.307 11.307 0 0 1 5.192 14.44z" transform="translate(-23.28 -27.16)" style="opacity:.1;fill:#fb9b27"/>
        <path data-name="Path 31368" d="M331.386 137.919c-.487-.117-1.135-.259-1.866-.431l6.5-3.548c3.608.919 7.079 1.593 9.146 1.47 0 0 .62 1.131-1.134 1.131s-.053 1.575-1.137 1.674-1.96.737-2.838 0a2.9 2.9 0 0 0-2.527-.985c-1.083.147-2.581.934-3.1 0s-.155 1.377-3.044.689z" transform="translate(-289.789 -120.102)" style="opacity:.5;fill:#fb9b27"/>
        <path data-name="Path 31369" d="M748.086 124.218a27.573 27.573 0 0 0 6.778-.908l6.433 3.515c-2.277.274-2-1.661-2.478-.793-.519.934-2.014.147-3.1 0a2.889 2.889 0 0 0-2.527.985c-.877.74-1.754.1-2.838 0s.618-1.674-1.137-1.674-1.131-1.125-1.131-1.125z" transform="translate(-653.956 -110.851)" style="opacity:.5;fill:#fb9b27"/>
        <path data-name="Path 31370" d="M222.572 85.6c1.754 0 1.135-1.133 1.135-1.133-4.788.287-17.138-3.722-21.217-5.1l-.437-11.767c2.217 1.464 5.56 2.076 7.15 2.465 2.889.688 2.529-1.624 3.044-.689s2.012.147 3.1 0a2.89 2.89 0 0 1 2.527.983c.877.738 1.754.1 2.838 0a.677.677 0 0 0 .141-.025l-8.488-4.634c-4.217-1.134-8.385-2.5-10.5-3.211l-.1-2.574-4.579-2.5.1 5.475c-4.954 1.636-15.559 4.93-19.916 4.671 0 0-.62 1.131 1.134 1.131s.053 1.575 1.137 1.674 1.96.738 2.837 0a2.888 2.888 0 0 1 2.527-.983c1.083.148 2.581.934 3.1 0s.154 1.377 3.044.689a28.036 28.036 0 0 0 6.239-1.934l.212 11.322c-4.32 1.453-16.262 5.292-20.955 5.012 0 0-.619 1.133 1.135 1.133s.052 1.575 1.135 1.672 1.96.738 2.837 0a2.89 2.89 0 0 1 2.529-.983c1.083.148 2.579.934 3.1 0s.154 1.377 3.045.689c1.621-.389 5.06-1.021 7.266-2.543l.227 12.066c-4.62 1.541-15.995 5.148-20.549 4.877 0 0-.62 1.131 1.134 1.131s.065 1.567 1.142 1.671 1.96.737 2.838 0a2.892 2.892 0 0 1 2.527-.985c1.083.148 2.581.934 3.1 0s.154 1.377 3.044.689a24.6 24.6 0 0 0 6.869-2.283l.5 26.626c-5.22 1.7-10.241 4.108-15.7 4.843-9.116 1.229-18.424-2.335-27.5-2.245l-.716-19.266a30.2 30.2 0 0 0 5.867 1.753c2.891.688 2.53-1.623 3.045-.689s2.012.147 3.1 0a2.891 2.891 0 0 1 2.529.985c.877.74 1.754.1 2.837 0s-.618-1.674 1.137-1.674 1.134-1.131 1.134-1.131c-4.336.259-14.861-3-19.851-4.644l-.457-12.292c2.217 1.513 5.637 2.143 7.253 2.529 2.889.688 2.529-1.623 3.044-.689s2.014.147 3.1 0a2.889 2.889 0 0 1 2.527.985c.877.74 1.754.1 2.839 0s-.619-1.674 1.135-1.674 1.134-1.131 1.134-1.131c-4.79.285-17.137-3.724-21.216-5.1l-.439-11.766c2.219 1.464 5.561 2.076 7.15 2.465 2.891.688 2.53-1.624 3.045-.689s2.012.147 3.1 0a2.894 2.894 0 0 1 2.529.983c.877.738 1.754.1 2.837 0s-.618-1.672 1.137-1.672 1.134-1.131 1.134-1.131c-4.747.28-16.934-3.664-21.108-5.076L152.7 60.2c2.162 1.8 6.027 2.507 7.774 2.923 2.891.688 2.53-1.623 3.045-.689s2.012.147 3.1 0a2.891 2.891 0 0 1 2.529.985c.877.74 1.754.1 2.838 0s-.618-1.674 1.137-1.674 1.134-1.131 1.134-1.131c-5.015.3-18.308-4.108-21.732-5.277l-.272-7.363a29.033 29.033 0 0 0 6.046 1.838c2.889.688 2.529-1.624 3.044-.689s2.014.147 3.1 0a2.891 2.891 0 0 1 2.527.983c.877.738 1.754.1 2.838 0s-.618-1.674 1.137-1.674 1.134-1.131 1.134-1.131c-4.389.259-15.116-3.079-20.023-4.7l-.119-3.209-3.943 2.155.01.55c-.631.214-1.522.519-2.595.861l-11.288 6.168c1.083.148 2.575.932 3.09 0s.154 1.377 3.045.689c1.765-.422 5.692-1.138 7.84-2.984l.174 9.212c-5.078 1.672-15.346 4.836-19.616 4.576 0 0-.619 1.131 1.135 1.131s.052 1.575 1.135 1.674 1.962.737 2.839 0a2.9 2.9 0 0 1 2.527-.985c1.083.147 2.581.934 3.1 0s.154 1.377 3.044.689a29.82 29.82 0 0 0 5.933-1.783l.206 10.967c-4.954 1.636-15.559 4.93-19.917 4.671 0 0-.619 1.131 1.135 1.131s.052 1.575 1.135 1.672 1.962.738 2.839 0a2.888 2.888 0 0 1 2.527-.983c1.083.148 2.581.934 3.1 0s.154 1.377 3.044.689a27.96 27.96 0 0 0 6.238-1.934l.213 11.328c-4.322 1.444-16.263 5.287-20.955 5.008 0 0-.62 1.131 1.134 1.131s.053 1.575 1.137 1.674 1.96.737 2.838 0a2.9 2.9 0 0 1 2.527-.985c1.083.147 2.581.934 3.1 0s.154 1.377 3.045.689c1.619-.389 5.06-1.021 7.272-2.543l.227 12.073c-4.623 1.543-15.995 5.148-20.55 4.877 0 0-.619 1.131 1.135 1.131s.052 1.575 1.135 1.674 1.962.737 2.839 0a2.9 2.9 0 0 1 2.527-.985c1.083.147 2.581.934 3.1 0s.154 1.377 3.044.689a24.6 24.6 0 0 0 6.869-2.283l.389 20.407-.165.036c-3.678.839-7.084 2.574-10.782 3.294-6.033 1.179-12.5-.361-18.644-.6l-1.12-30.086a30.177 30.177 0 0 0 5.868 1.753c2.889.688 2.529-1.623 3.044-.689s2.012.147 3.1 0a2.888 2.888 0 0 1 2.527.985c.877.74 1.754.1 2.837 0s-.618-1.674 1.137-1.674 1.134-1.131 1.134-1.131c-4.336.259-14.861-3-19.844-4.644l-.457-12.292c2.216 1.513 5.637 2.143 7.251 2.529 2.891.688 2.53-1.623 3.044-.689s2.014.147 3.1 0a2.891 2.891 0 0 1 2.529.985c.877.74 1.754.1 2.838 0s-.619-1.674 1.135-1.674 1.135-1.131 1.135-1.131c-4.791.285-17.138-3.724-21.217-5.1l-.439-11.766c2.219 1.465 5.561 2.076 7.151 2.465 2.889.688 2.529-1.624 3.044-.689s2.012.147 3.1 0a2.875 2.875 0 0 1 2.527.977c.871.74 1.754.1 2.837 0s-.618-1.674 1.137-1.674 1.134-1.131 1.134-1.131c-4.753.284-16.941-3.66-21.116-5.069l-.227-6.1-4.422 2.412.077 4.087a133.158 133.158 0 0 1-15.263 4.206l-3.028 1.654c.9.293-.309 1.524.649 1.613 1.083.1 1.96.737 2.837 0a2.892 2.892 0 0 1 2.527-.985c1.083.148 2.581.934 3.1 0s.154 1.377 3.044.689a27.968 27.968 0 0 0 6.239-1.934l.211 11.328c-4.32 1.453-16.262 5.294-20.955 5.013 0 0-.619 1.131 1.135 1.131s.052 1.575 1.135 1.674 1.96.737 2.837 0a2.9 2.9 0 0 1 2.529-.985c1.083.147 2.579.934 3.1 0s.154 1.377 3.045.689c1.62-.389 5.06-1.021 7.272-2.543l.228 12.073c-4.62 1.543-15.995 5.148-20.549 4.877 0 0-.62 1.131 1.134 1.131s.052 1.575 1.137 1.674 1.96.737 2.838 0a2.9 2.9 0 0 1 2.527-.985c1.083.147 2.581.934 3.1 0s.154 1.377 3.044.689a24.6 24.6 0 0 0 6.869-2.283l.583 30.931a16.71 16.71 0 0 0-4.5 1.427 15.947 15.947 0 0 0-3.763 2.595l.8 1.862a12.152 12.152 0 0 0 11.218 7.159h80.127a12.154 12.154 0 0 0 11.218-7.159l5.768-13.344a30.316 30.316 0 0 0-10.871-.231l-.908-24.651a30.268 30.268 0 0 0 5.868 1.753c2.889.688 2.529-1.624 3.044-.689s2.012.147 3.1 0a2.888 2.888 0 0 1 2.527.985c.877.74 1.754.1 2.838 0s-.618-1.674 1.137-1.674 1.134-1.131 1.134-1.131c-4.336.259-14.861-3-19.844-4.644l-.457-12.292c2.216 1.512 5.637 2.143 7.251 2.529 2.891.688 2.53-1.624 3.044-.689s2.014.147 3.1 0a2.894 2.894 0 0 1 2.529.983c.877.738 1.754.1 2.837 0s-.657-1.673 1.097-1.673z" transform="translate(-83.245 -37.819)" style="opacity:.2;fill:#fb9b27"/>
        <path data-name="Path 31371" d="M876.861 144.12a21.146 21.146 0 0 1-1.557 10.946 19.18 19.18 0 0 1-3.176-20.937 21.134 21.134 0 0 1 4.733 9.991z" transform="translate(-760.47 -120.267)" style="fill:#0074c9"/>
        <path data-name="Path 31372" d="M1007.544 282.146a11.49 11.49 0 0 1 5.781 1.671 10.437 10.437 0 0 1-11.525.126 11.483 11.483 0 0 1 5.744-1.797z" transform="translate(-874.845 -249.079)" style="fill:#0074c9"/>
        <path data-name="Path 31373" d="M953.019 185.692a15.889 15.889 0 0 0-3.589 7.51 14.441 14.441 0 0 0 10.725-11.791 15.887 15.887 0 0 0-7.136 4.281z" transform="translate(-829.269 -161.413)" style="fill:#0074c9"/>
        <rect data-name="Rectangle 6020" width="90.323" height="81.22" rx="8" transform="translate(39.409 28.485)" style="fill:#c0e4ff"/>
        <g data-name="Group 23154" style="opacity:.1">
            <path data-name="Path 31374" d="m119.698 70.614-2.281 1.1-18.424 8.882-1.626.778a.908.908 0 0 1-1.229-.476.892.892 0 0 1-.065-.336v-5.247a.908.908 0 0 0-.9-.908h-44.97a.908.908 0 0 1-.908-.9v-7.408a.908.908 0 0 1 .908-.908h44.969a.908.908 0 0 0 .9-.9v-5.364a.893.893 0 0 1 .065-.336.908.908 0 0 1 1.231-.474l1.623.79 18.424 8.976 2.285 1.109a.908.908 0 0 1 0 1.627z"/>
        </g>
        <path data-name="Path 31375" d="m473.633 482.087-2.281 1.1-18.424 8.882-1.626.778a.908.908 0 0 1-1.229-.476.893.893 0 0 1-.065-.336v-5.247a.908.908 0 0 0-.9-.908h-44.97a.908.908 0 0 1-.908-.9v-7.408a.908.908 0 0 1 .908-.908h44.969a.908.908 0 0 0 .9-.9V470.4a.893.893 0 0 1 .065-.336.908.908 0 0 1 1.231-.474l1.623.79 18.424 8.976 2.285 1.109a.908.908 0 0 1 0 1.627z" transform="translate(-353.935 -412.122)" style="fill:#0074c9"/>
        <path data-name="Path 31376" d="M100.247 694.375a4.817 4.817 0 0 1-1.3 2.91 10.9 10.9 0 0 0-.8 1.272c-.714 1.271-2.247 1.876-3.078 3.075-.2.291-.357.61-.532.917A12.255 12.255 0 0 1 92.3 705.4l-1.5 1.406a4.733 4.733 0 0 0-1.116 1.339 4.31 4.31 0 0 0-.288 1.979v.378a11.807 11.807 0 0 0 .259 2.449 1.258 1.258 0 0 1 .044.779 1.016 1.016 0 0 1-.663.494 1.422 1.422 0 0 1-.908.061 1.519 1.519 0 0 1-.676-.6 16.571 16.571 0 0 1-1.752-4.095.922.922 0 0 1 .2-.865 4.981 4.981 0 0 1 .685-.625 7.414 7.414 0 0 0 1.914-3.586 9.765 9.765 0 0 1 1.68-3.725 25.211 25.211 0 0 1 2.01-1.755 10.65 10.65 0 0 0 2.867-5.888 4.45 4.45 0 0 1 1.518-.02l2.677.356a1.21 1.21 0 0 1 .794.314.964.964 0 0 1 .2.58z" transform="translate(-77.566 -606.688)" style="fill:#efb7b9"/>
        <path data-name="Path 31377" d="M232.046 691.945a2.844 2.844 0 0 1-.419 1.136 10.221 10.221 0 0 1-1.1 1.395c-1.022 1.168-1.195 2.844-1.846 4.257-.211.459-.474.893-.688 1.349a11.483 11.483 0 0 0-.89 3.852c-.016.171-.03.343-.043.512-.018.212-.032.423-.048.633a3.33 3.33 0 0 0 .16 1.648 2.018 2.018 0 0 1 .326.762 1.276 1.276 0 0 1-1.557.029 3.135 3.135 0 0 1-.989-1.343 12.353 12.353 0 0 1-.928-2.946 1.254 1.254 0 0 1 .173-1.12 4.762 4.762 0 0 1 .488-.332 1.83 1.83 0 0 0 .519-1.168q.389-2.206.788-4.411a10.719 10.719 0 0 1 .23-1.068 4.273 4.273 0 0 1 1.2-2.169.663.663 0 0 0 .2-.609 1.846 1.846 0 0 0-.249-.618 5.252 5.252 0 0 0-1.9-2.172 9.82 9.82 0 0 1 2.993-1.715 1.189 1.189 0 0 1 .616-.105 1.048 1.048 0 0 1 .319.13 5.512 5.512 0 0 1 1.469 1.367 3.876 3.876 0 0 1 1.176 2.706z" transform="translate(-197.939 -602.047)" style="fill:#efb7b9"/>
        <path data-name="Path 31378" d="M78.855 818.834a3.2 3.2 0 0 0-.908-.6.631.631 0 0 0-.247-.082c-.209-.01-.366.178-.545.287a1.007 1.007 0 0 1-.952 0 1.946 1.946 0 0 1-.71-.68 5.022 5.022 0 0 1-.615-1.742l1.663-.314a3.5 3.5 0 0 0 .869-.327v-.378c-.307.092-.96.389-1.114.429a11.594 11.594 0 0 1-1.521.241c-.079-.157-.193-.293-.285-.448a2.551 2.551 0 0 1-.346-1.016 1.282 1.282 0 0 0-.082-.415.33.33 0 0 0-.35-.206.445.445 0 0 0-.149.074 2.893 2.893 0 0 0-1.038 1.3 10.758 10.758 0 0 0-.389 2.485 9.375 9.375 0 0 0-.252 1.87.13.13 0 0 0 .13.147 1.247 1.247 0 0 0 1.026-.073 1.443 1.443 0 0 0 .376-.977 4.8 4.8 0 0 1 .426-1.362 2.82 2.82 0 0 1 .634 1.87 1.52 1.52 0 0 0 .21 1.074 1.084 1.084 0 0 0 .448.259 4.458 4.458 0 0 0 1.056.231 8.941 8.941 0 0 0 1.959-.1c.205-.026.411-.052.615-.1a.648.648 0 0 0 .287-.12.527.527 0 0 0 .169-.328 1.2 1.2 0 0 0-.365-.999z" transform="translate(-65.576 -711.561)" style="fill:#464353"/>
        <path data-name="Path 31379" d="M215.305 804.1a2.133 2.133 0 0 0-.532-.353 1.209 1.209 0 0 0-.519-.175 1.63 1.63 0 0 0-.6.184.711.711 0 0 1-.61.026.827.827 0 0 1-.3-.43c-.234-.558-.41-1.139-.614-1.707a.429.429 0 0 1 .2-.167.635.635 0 0 1 .2-.023 5.606 5.606 0 0 0 1.467-.145c.013-.17.027-.341.043-.513a2.871 2.871 0 0 0-1.028.089 1.623 1.623 0 0 1-.728.1c-.169-.035-.328-.137-.493-.16-.078-.144-.162-.283-.243-.424-.205-.363-.269-.786-.468-1.138a.389.389 0 0 0-.322-.217.56.56 0 0 0-.366.215 3.91 3.91 0 0 0-.86 1.116 3.392 3.392 0 0 0-.187.6 14.749 14.749 0 0 0-.389 3.545 2.205 2.205 0 0 0 .934.088q.241-1.2.59-2.383a.119.119 0 0 1 .045-.074c.051-.027.1.029.13.078a6.068 6.068 0 0 1 .682 1.356 3.717 3.717 0 0 0 .352 1.008 1.543 1.543 0 0 0 .871.589 4.629 4.629 0 0 0 1.063.138l.532.026a2.219 2.219 0 0 0 .859-.067.764.764 0 0 0 .54-.615.755.755 0 0 0-.249-.567z" transform="translate(-184.864 -698.918)" style="fill:#464353"/>
        <path data-name="Path 31380" d="M156.063 589.365a1.7 1.7 0 0 1-.842.381l-.922.224a.378.378 0 0 0-.26.147c-.053.1-.016.217-.042.323a.274.274 0 0 1-.058.114.672.672 0 0 1-.475.17 1.218 1.218 0 0 0-.448.066.362.362 0 0 0-.15.122c-.047.067-.066.15-.115.215a.534.534 0 0 1-.319.166 2.757 2.757 0 0 1-.389.06 2.853 2.853 0 0 1-1.492-.281.533.533 0 0 0-.374-.089.361.361 0 0 0-.186.149 2.329 2.329 0 0 1-.154.213c-.239.259-.649.189-.993.117a13.729 13.729 0 0 0-.637-.119 29.211 29.211 0 0 0-3.862-.287 23.884 23.884 0 0 1-4.968-.492c-.353-.086-.778-.288-.762-.649.012-.206.175-.389.174-.592 0-.353-.432-.542-.778-.6.13-1.928 1.283-3.616 1.886-5.449.151-.455.26-.922.429-1.373.734-2.029 2.347-3.586 3.689-5.275a3.155 3.155 0 0 0 .5-.79 3.443 3.443 0 0 0 .178-1.068l.074-1.27a22.45 22.45 0 0 1 5.867.365.4.4 0 0 1 .41.389q.113.7.158 1.4a1.155 1.155 0 0 0 .044.306 1.27 1.27 0 0 0 .21.346 15.851 15.851 0 0 1 2.361 5.013c.545 1.77.978 3.589 1.663 5.319a7.507 7.507 0 0 1 .607 1.907.572.572 0 0 1-.024.822z" transform="translate(-123.126 -502.593)" style="fill:#464353"/>
        <path data-name="Path 31381" d="M190.7 610.266a29.243 29.243 0 0 0-3.862-.287l.108-3.581c.025-.794.048-1.589.143-2.377.13-1.121.407-2.22.545-3.34a14.811 14.811 0 0 0 .108-1.933 11.317 11.317 0 0 1 .054-1.968 2.328 2.328 0 0 1 .815-1.58c.33.451-.176 1.713-.236 2.252a9.973 9.973 0 0 0 .442 3.342c.314 1.32.571 2.652.826 3.984q.531 2.744 1.057 5.488z" transform="translate(-165.621 -521.516)" style="opacity:.1"/>
        <path data-name="Path 31382" d="M225.915 617.083a2.853 2.853 0 0 1-1.492-.282.533.533 0 0 0-.374-.089.361.361 0 0 0-.186.149c-.439-2.082-.415-4.249-.762-6.357a6.3 6.3 0 0 1-.15-2.261c.156-.8.658-1.488.854-2.276a6.069 6.069 0 0 0 .11-1.585 3.809 3.809 0 0 0-.339-1.361 1.57 1.57 0 0 1 1.024.938 4.417 4.417 0 0 1 .3 1.6c.073 1.322.084 2.645.065 3.969a14.689 14.689 0 0 0 .042 1.851c.067.606.217 1.2.266 1.809a13.154 13.154 0 0 0 .149 2.185 10.97 10.97 0 0 1 .493 1.71z" transform="translate(-196.998 -528.322)" style="opacity:.1"/>
        <path data-name="Path 31383" d="M241.538 617.232a.673.673 0 0 1-.475.17 1.214 1.214 0 0 0-.448.066q-.389-2.375-.769-4.746a16.11 16.11 0 0 1-.223-1.761c-.034-.684.019-1.369-.029-2.051a14.4 14.4 0 0 0-.47-2.465c-.119-.484-.667-1.927-.361-2.335a2.774 2.774 0 0 1 .93 1.5 9.545 9.545 0 0 1 .318 1.863l.366 3.661a24 24 0 0 0 1.118 5.986c.016.036.03.08.043.112z" transform="translate(-210.728 -529.27)" style="opacity:.1"/>
        <path data-name="Path 31384" d="M270.327 488.992c.342-.289.685-.58 1-.9a13.7 13.7 0 0 0 1.225-1.5 7.839 7.839 0 0 0 1.038-1.72 7.415 7.415 0 0 1 .85-2.125.487.487 0 0 1 .219-.171c.276-.087.483.26.536.546a7 7 0 0 1-.961 4.1 3.726 3.726 0 0 1-.75 1.188 7.047 7.047 0 0 1-.59.453 6.172 6.172 0 0 0-.836.823q-.649.737-1.234 1.527a16.725 16.725 0 0 1-1.512 1.9 3.805 3.805 0 0 1-2.094 1.151c.23-.031.154-1.379.13-1.549a7.876 7.876 0 0 1-.209-.779c-.006-.3.114-.339.358-.546z" transform="translate(-235.501 -423.495)" style="fill:#efb7b9"/>
        <path data-name="Path 31385" d="M270.327 488.992c.342-.289.685-.58 1-.9a13.7 13.7 0 0 0 1.225-1.5 7.839 7.839 0 0 0 1.038-1.72 7.415 7.415 0 0 1 .85-2.125.487.487 0 0 1 .219-.171c.276-.087.483.26.536.546a7 7 0 0 1-.961 4.1 3.726 3.726 0 0 1-.75 1.188 7.047 7.047 0 0 1-.59.453 6.172 6.172 0 0 0-.836.823q-.649.737-1.234 1.527a16.725 16.725 0 0 1-1.512 1.9 3.805 3.805 0 0 1-2.094 1.151c.23-.031.154-1.379.13-1.549a7.876 7.876 0 0 1-.209-.779c-.006-.3.114-.339.358-.546z" transform="translate(-235.501 -423.495)" style="opacity:.1"/>
        <path data-name="Path 31386" d="M205.543 466.66s-.778 3.892-1.687 4.541 4.93 1.427 4.93 1.427.13-3.114 1.687-4.541-4.93-1.427-4.93-1.427z" transform="translate(-180.346 -409.654)" style="fill:#efb7b9"/>
        <path data-name="Path 31387" d="M194.734 498.584a1.627 1.627 0 0 0-1 .532 2.776 2.776 0 0 0-.519 2.536 7.381 7.381 0 0 0 1.223 2.387 11.449 11.449 0 0 0 2.32 2.626 17.49 17.49 0 0 0 1.565 1.011 25.557 25.557 0 0 1 2.578 1.816 2.166 2.166 0 0 0 .61.389 1.737 1.737 0 0 0 .6.078 4.67 4.67 0 0 0 1.967-.458.363.363 0 0 0 .148-.106.4.4 0 0 0 .006-.318c-.366-1.479.34-3.157-.361-4.509-.762.248-1.6.519-2.359.76a.865.865 0 0 1-.368.062.779.779 0 0 1-.4-.217 7.993 7.993 0 0 1-1.816-2.69 10.893 10.893 0 0 0-1.675-2.795 2.773 2.773 0 0 0-2.519-1.104z" transform="translate(-171.086 -437.419)" style="fill:#6c63ff"/>
        <path data-name="Path 31388" d="M194.734 498.584a1.627 1.627 0 0 0-1 .532 2.776 2.776 0 0 0-.519 2.536 7.381 7.381 0 0 0 1.223 2.387 11.449 11.449 0 0 0 2.32 2.626 17.49 17.49 0 0 0 1.565 1.011 25.557 25.557 0 0 1 2.578 1.816 2.166 2.166 0 0 0 .61.389 1.737 1.737 0 0 0 .6.078 4.67 4.67 0 0 0 1.967-.458.363.363 0 0 0 .148-.106.4.4 0 0 0 .006-.318c-.366-1.479.34-3.157-.361-4.509-.762.248-1.6.519-2.359.76a.865.865 0 0 1-.368.062.779.779 0 0 1-.4-.217 7.993 7.993 0 0 1-1.816-2.69 10.893 10.893 0 0 0-1.675-2.795 2.773 2.773 0 0 0-2.519-1.104z" transform="translate(-171.086 -437.419)" style="opacity:.1"/>
        <circle data-name="Ellipse 1243" cx="3.892" cy="3.892" r="3.892" transform="translate(24.354 52.141)" style="fill:#efb7b9"/>
        <path data-name="Path 31389" d="m190.038 500.381-.009.017c-.224.417-.56.767-.791 1.182a5.224 5.224 0 0 0-.484 1.534q-.108.532-.2 1.065c-.062.361-.121.721-.174 1.085-1.175-.4-2.478.27-3.7.026a7.383 7.383 0 0 0-1.085-.243c-.271-.013-.544.048-.815.022-.45-.043-.9-.326-1.326-.182-.192.065-.429.2-.567.053a.411.411 0 0 1-.07-.13 1.661 1.661 0 0 1-.145-.955 3.154 3.154 0 0 1 .4-.727 3.258 3.258 0 0 0 .317-1.405 37.2 37.2 0 0 1 .282-3.747 6.714 6.714 0 0 1 1.473-3.4 2.457 2.457 0 0 1 1.557-.9 5.1 5.1 0 0 1 5.05 3.028 4.12 4.12 0 0 1 .287 3.677z" transform="translate(-160.235 -433.146)" style="fill:#0074c9"/>
        <path data-name="Path 31390" d="M282.327 492.992c.343-.289.685-.58 1-.9a13.689 13.689 0 0 0 1.225-1.5 7.836 7.836 0 0 0 1.038-1.72 7.416 7.416 0 0 1 .85-2.125.487.487 0 0 1 .219-.171c.276-.087.483.26.536.546a7.005 7.005 0 0 1-.961 4.1 3.727 3.727 0 0 1-.75 1.188 7.028 7.028 0 0 1-.59.453 6.181 6.181 0 0 0-.836.823q-.649.737-1.234 1.527a16.733 16.733 0 0 1-1.511 1.9 3.8 3.8 0 0 1-2.094 1.151c.23-.031.154-1.379.13-1.549a7.876 7.876 0 0 1-.209-.779c-.007-.3.114-.339.358-.546z" transform="translate(-245.944 -426.976)" style="fill:#efb7b9"/>
        <path data-name="Path 31391" d="m206.592 511.737-.009.017c-.224.416-.561.767-.791 1.182a5.223 5.223 0 0 0-.484 1.534q-.108.532-.2 1.065a14.323 14.323 0 0 1-1.349-.878 11.428 11.428 0 0 1-2.32-2.627 7.211 7.211 0 0 1-1.223-2.386 2.8 2.8 0 0 1 .519-2.536 1.63 1.63 0 0 1 1-.533 2.757 2.757 0 0 1 2.512 1.1 11.013 11.013 0 0 1 1.675 2.795c.207.424.422.858.67 1.267z" transform="translate(-177.178 -444.372)" style="opacity:.1"/>
        <path data-name="Path 31392" d="M206.734 502.584a1.627 1.627 0 0 0-1 .532 2.776 2.776 0 0 0-.519 2.537 7.381 7.381 0 0 0 1.223 2.387 11.451 11.451 0 0 0 2.32 2.626 17.489 17.489 0 0 0 1.565 1.011 25.569 25.569 0 0 1 2.578 1.816 2.17 2.17 0 0 0 .61.389 1.74 1.74 0 0 0 .6.078 4.669 4.669 0 0 0 1.967-.458.362.362 0 0 0 .148-.106.4.4 0 0 0 .007-.318c-.366-1.479.34-3.157-.361-4.509-.762.248-1.6.519-2.359.76a.863.863 0 0 1-.368.062.779.779 0 0 1-.4-.217 7.994 7.994 0 0 1-1.816-2.69 10.9 10.9 0 0 0-1.675-2.795 2.773 2.773 0 0 0-2.52-1.105z" transform="translate(-181.529 -440.9)" style="fill:#0074c9"/>
        <path data-name="Path 31393" d="M182.851 416.3a1.325 1.325 0 0 0-.032-1.589 3.681 3.681 0 0 0-1.353-1.028 3.456 3.456 0 0 0-2.595-.558 5.511 5.511 0 0 0-.946.493c-.573.319-1.205.519-1.789.817a2.822 2.822 0 0 0-1.393 1.33 3.839 3.839 0 0 0-.1 1.9 12.486 12.486 0 0 1 .018 2.969 5.51 5.51 0 0 1-1.105 2.725 7.154 7.154 0 0 0-1.283 1.632 3.876 3.876 0 0 0-.215 1.151l-.141 1.672a2.828 2.828 0 0 1-.621 1.861 5.149 5.149 0 0 0 1.774-.649 5.078 5.078 0 0 0 .842-.794 4.158 4.158 0 0 0 1.153-1.842c.11-.537.018-1.147.345-1.587a1.348 1.348 0 0 1 1.749-.18 3.545 3.545 0 0 1 1.168 1.506 4.521 4.521 0 0 0 1.09 1.579 3.091 3.091 0 0 0 1.412.594 1.242 1.242 0 0 0 1.009-.139 1.288 1.288 0 0 0 .214-1.338 3.636 3.636 0 0 1-.235-1.864c.057-.2.16-.389.223-.594a3.31 3.31 0 0 0 .105-.9 13.549 13.549 0 0 0-.389-4.624c-.158-.468-.583-.915-.365-1.427.266-.629 1.048-.651 1.46-1.116z" transform="translate(-152.088 -362.98)" style="fill:#464353"/>
        <g data-name="Group 23155" style="opacity:.1">
            <path data-name="Path 31394" d="M22.642 55.914a15.271 15.271 0 0 0-.09-2.15c-.014-.14-.03-.282-.042-.424a5.97 5.97 0 0 0 .042 1.332c.043.417.075.832.09 1.242z"/>
            <path data-name="Path 31395" d="M29.744 64.265a1.241 1.241 0 0 1-1.009.139 3.09 3.09 0 0 1-1.412-.594 4.683 4.683 0 0 1-1.082-1.584 3.619 3.619 0 0 0-1.168-1.506 1.36 1.36 0 0 0-1.757.18c-.327.44-.235 1.05-.345 1.587a4.165 4.165 0 0 1-1.153 1.842 5.081 5.081 0 0 1-.842.794 3.967 3.967 0 0 1-1.261.528 1.953 1.953 0 0 1-.512 1.038 5.15 5.15 0 0 0 1.774-.649 5.08 5.08 0 0 0 .842-.794 4.158 4.158 0 0 0 1.153-1.842c.11-.537.018-1.147.345-1.587a1.348 1.348 0 0 1 1.749-.18 3.545 3.545 0 0 1 1.168 1.506 4.5 4.5 0 0 0 1.09 1.575 3.09 3.09 0 0 0 1.412.594 1.242 1.242 0 0 0 1.009-.139 1.224 1.224 0 0 0 .235-1.25.734.734 0 0 1-.236.342z"/>
            <path data-name="Path 31396" d="M30.764 52.407c-.413.47-1.195.493-1.464 1.118a.915.915 0 0 0 .066.778c.314-.5 1.015-.557 1.4-.993a1.207 1.207 0 0 0 .17-1.187.954.954 0 0 1-.172.284z"/>
            <path data-name="Path 31397" d="M30.051 59.572a3.311 3.311 0 0 1-.105.9c-.064.2-.166.389-.223.594a2 2 0 0 0 0 .935v-.027c.057-.2.16-.389.223-.594a3.311 3.311 0 0 0 .105-.9c.014-.606.034-1.229.021-1.853-.009.318-.009.629-.021.945z"/>
        </g>
    </g>
</svg>
