<svg width="24" height="24" viewBox="0 0 24 24" fill="none" xmlns="http://www.w3.org/2000/svg">
<path d="M11.9982 4C10.4527 4 9.19531 5.25741 9.19531 6.80291V12.3116C9.19531 13.8569 10.4527 15.1143 11.9982 15.1143C13.5437 15.1143 14.8011 13.8657 14.8011 12.3309V6.80291C14.8011 5.25741 13.5437 4 11.9982 4ZM13.6331 12.3307C13.6331 13.2214 12.8996 13.9463 11.9982 13.9463C11.0968 13.9463 10.3632 13.213 10.3632 12.3114V6.80291C10.3632 5.90131 11.0966 5.16788 11.9982 5.16788C12.8998 5.16788 13.6332 5.90131 13.6331 6.80291V12.3307Z" fill="#034263"/>
<path d="M12.5858 16.7891H11.418V19.4168H12.5858V16.7891Z" fill="#034263"/>
<path d="M13.5383 18.832H10.4628C10.1403 18.832 9.87891 19.0934 9.87891 19.416C9.87891 19.7385 10.1403 19.9999 10.4628 19.9999H13.5383C13.8608 19.9999 14.1222 19.7385 14.1222 19.416C14.1222 19.0934 13.8608 18.832 13.5383 18.832Z" fill="#034263"/>
<path d="M16.417 11.3398C16.0945 11.3398 15.8331 11.6012 15.8331 11.9238V12.3909C15.8331 14.5052 14.1128 16.2255 11.9985 16.2255C9.88409 16.2255 8.16397 14.5052 8.16397 12.3909V11.9238C8.16397 11.6012 7.90256 11.3398 7.58003 11.3398C7.2575 11.3398 6.99609 11.6012 6.99609 11.9238V12.3909C6.99609 15.1493 9.24019 17.3934 11.9985 17.3934C14.7569 17.3934 17.001 15.1493 17.001 12.3909V11.9238C17.001 11.6013 16.7396 11.3398 16.417 11.3398Z" fill="#034263"/>
</svg>
