<svg width="9" height="8" viewBox="0 0 9 8" fill="none" xmlns="http://www.w3.org/2000/svg">
<path d="M6.86708 4.97645C6.81599 5.02861 6.77769 5.09303 6.75543 5.1642C6.73317 5.23536 6.72764 5.31114 6.73929 5.38504L7.09506 7.45646C7.10972 7.54244 7.10054 7.63105 7.06862 7.71169C7.03671 7.79232 6.9834 7.86157 6.91507 7.91116C6.84799 7.96258 6.76847 7.99301 6.68568 7.99893C6.60289 8.00486 6.52019 7.98603 6.44712 7.94463L4.67549 6.97208C4.61381 6.93779 4.54543 6.91899 4.4757 6.91713H4.36712C4.32928 6.92297 4.29272 6.9358 4.25913 6.95502L2.48749 7.932C2.39984 7.97833 2.30056 7.99446 2.20372 7.9781C2.0899 7.95532 1.98901 7.88667 1.92256 7.78676C1.85611 7.68685 1.82934 7.56358 1.84795 7.4432L2.20372 5.37178C2.21537 5.29729 2.20984 5.22095 2.1876 5.14919C2.16536 5.07742 2.12706 5.01233 2.07593 4.95939L0.631271 3.48604C0.572214 3.42576 0.530735 3.34899 0.511711 3.26475C0.492687 3.18051 0.496909 3.0923 0.523881 3.0105C0.550152 2.92869 0.597195 2.85602 0.659909 2.80036C0.722623 2.7447 0.798615 2.70817 0.879647 2.69473L2.86726 2.39097C2.94172 2.38289 3.01304 2.35516 3.0746 2.31034C3.13616 2.26552 3.18598 2.20506 3.21942 2.13457L4.09534 0.244402C4.11592 0.202215 4.14287 0.163824 4.17513 0.130726L4.21113 0.101045C4.2297 0.079345 4.25135 0.0608102 4.27532 0.0461016L4.31912 0.0296818L4.38691 0H4.5555C4.62952 0.00797143 4.70049 0.0352444 4.76198 0.0793515C4.82347 0.123459 4.87354 0.183008 4.90766 0.252611L5.79498 2.13457C5.82655 2.20229 5.87321 2.26097 5.93098 2.30562C5.98874 2.35026 6.05591 2.37954 6.12675 2.39097L8.11436 2.69473C8.19674 2.70713 8.27428 2.74315 8.33852 2.79885C8.40275 2.85454 8.45118 2.92776 8.47852 3.0105C8.50418 3.09315 8.50691 3.18178 8.4864 3.26601C8.46589 3.35024 8.42299 3.42657 8.36273 3.48604L6.86708 4.97645Z" fill="#989899"/>
</svg>
