<svg width="16" height="16" viewBox="0 0 16 16" fill="none" xmlns="http://www.w3.org/2000/svg">
<g clip-path="url(#clip0_688_78008)">
<path d="M2 14H14" stroke="#012F47" stroke-linecap="round" stroke-linejoin="round"/>
<path d="M2 4.667V5.334C2 5.86443 2.21071 6.37314 2.58579 6.74821C2.96086 7.12329 3.46957 7.334 4 7.334C4.53043 7.334 5.03914 7.12329 5.41421 6.74821C5.78929 6.37314 6 5.86443 6 5.334V4.667M6 5.334C6 5.86443 6.21071 6.37314 6.58579 6.74821C6.96086 7.12329 7.46957 7.334 8 7.334C8.53043 7.334 9.03914 7.12329 9.41421 6.74821C9.78929 6.37314 10 5.86443 10 5.334V4.667M10 5.334C10 5.86443 10.2107 6.37314 10.5858 6.74821C10.9609 7.12329 11.4696 7.334 12 7.334C12.5304 7.334 13.0391 7.12329 13.4142 6.74821C13.7893 6.37314 14 5.86443 14 5.334V4.667H2L3.333 2H12.666L14 4.667" stroke="#012F47" stroke-linecap="round" stroke-linejoin="round"/>
<path d="M3.33203 13.9999V7.23291" stroke="#012F47" stroke-linecap="round" stroke-linejoin="round"/>
<path d="M12.668 13.9999V7.23291" stroke="#012F47" stroke-linecap="round" stroke-linejoin="round"/>
<path d="M6 14V11.333C6 10.9795 6.14044 10.6404 6.39043 10.3904C6.64041 10.1404 6.97947 10 7.333 10H8.666C8.84114 9.99987 9.01458 10.0343 9.17642 10.1012C9.33827 10.1681 9.48533 10.2663 9.60922 10.3901C9.73311 10.5139 9.83138 10.6609 9.89844 10.8227C9.96549 10.9844 10 11.1579 10 11.333V14" stroke="#012F47" stroke-linecap="round" stroke-linejoin="round"/>
</g>
<defs>
<clipPath id="clip0_688_78008">
<rect width="16" height="16" fill="white"/>
</clipPath>
</defs>
</svg>
