<svg width="114" height="114" viewBox="0 0 114 114" fill="none" xmlns="http://www.w3.org/2000/svg">
<g clip-path="url(#clip0_6530_68402)">
<path opacity="0.997" d="M57 114C88.4802 114 114 88.4802 114 57C114 25.5198 88.4802 0 57 0C25.5198 0 0 25.5198 0 57C0 88.4802 25.5198 114 57 114Z" fill="#FFEDEE"/>
<g clip-path="url(#clip1_6530_68402)">
<path d="M72.7335 89.9112H13.0278C10.7213 89.9109 8.45312 89.3211 6.43862 88.1978C4.42413 87.0746 2.73014 85.4551 1.51749 83.493C0.304833 81.5311 -0.386249 79.2917 -0.490163 76.9875C-0.594076 74.6834 -0.10737 72.3909 0.923757 70.3277L30.7716 10.6232C31.8944 8.37229 33.6224 6.47883 35.7616 5.15538C37.9007 3.83192 40.3664 3.13086 42.8819 3.13086C45.3973 3.13086 47.863 3.83192 50.0022 5.15538C52.1414 6.47883 53.8693 8.37229 54.9922 10.6232L84.84 70.3277C85.8711 72.3909 86.3578 74.6834 86.2539 76.9875C86.15 79.2917 85.4589 81.5311 84.2463 83.493C83.0336 85.4551 81.3396 87.0746 79.3251 88.1978C77.3106 89.3211 75.0425 89.9109 72.736 89.9112H72.7335Z" fill="#FF7761" stroke="white"/>
<path d="M42.8827 24.8262C43.6007 24.8262 44.2891 25.1114 44.7968 25.619C45.3044 26.1267 45.5896 26.8152 45.5896 27.5331V60.0113C45.5896 60.7292 45.3044 61.4177 44.7968 61.9254C44.2891 62.433 43.6007 62.7182 42.8827 62.7182C42.1648 62.7182 41.4763 62.433 40.9686 61.9254C40.461 61.4177 40.1758 60.7292 40.1758 60.0113V27.5331C40.1758 26.8152 40.461 26.1267 40.9686 25.619C41.4763 25.1114 42.1648 24.8262 42.8827 24.8262Z" fill="white"/>
<path d="M45.5897 68.1348H40.1758V73.5486H45.5897V68.1348Z" fill="white"/>
</g>
</g>
<defs>
<clipPath id="clip0_6530_68402">
<rect width="114" height="114" fill="white"/>
</clipPath>
<clipPath id="clip1_6530_68402">
<rect width="88.276" height="88.0287" fill="white" transform="translate(-1.25488 2.50977)"/>
</clipPath>
</defs>
</svg>
