<svg xmlns="http://www.w3.org/2000/svg" width="13" height="13" viewBox="0 0 13 13">
    <g data-name="Iconly/Light-Outline/Danger Circle">
        <g data-name="Danger Circle">
            <path data-name="Combined Shape" d="M0 6.5A6.5 6.5 0 1 1 6.5 13 6.507 6.507 0 0 1 0 6.5zm.975 0A5.525 5.525 0 1 0 6.5.975 5.532 5.532 0 0 0 .975 6.5zm4.874 2.468a.647.647 0 0 1 .646-.65H6.5a.65.65 0 1 1-.653.65zm.16-2.068V4.032a.488.488 0 0 1 .975 0V6.9a.488.488 0 1 1-.975 0z" style="fill:#fff" transform="rotate(180 6.5 6.5)"/>
        </g>
    </g>
</svg>
