<svg width="13" height="12" viewBox="0 0 13 12" fill="none" xmlns="http://www.w3.org/2000/svg">
<path d="M11.9913 4.68315L11.9911 4.68262C11.9692 4.61185 11.9164 4.57893 11.8728 4.57484L11.8725 4.57481L8.40895 4.24664L8.10796 4.21812L7.9934 3.93832L6.62424 0.594277C6.62419 0.594156 6.62414 0.594035 6.62409 0.593915C6.59613 0.526422 6.54239 0.5 6.50005 0.5C6.45788 0.5 6.40415 0.526228 6.3761 0.594258C6.37607 0.594329 6.37604 0.594399 6.37602 0.59447L5.00668 3.93835L4.89211 4.21812L4.59113 4.24664L1.12792 4.57472C1.12784 4.57473 1.12776 4.57474 1.12769 4.57475C1.08375 4.57908 1.03099 4.61206 1.00876 4.68341C0.985773 4.75718 1.01001 4.83139 1.05452 4.87192L1.05546 4.87277L3.67347 7.26865L3.88562 7.46279L3.82448 7.74379L3.0526 11.2918C3.05258 11.2919 3.05256 11.292 3.05255 11.2921C3.03581 11.3698 3.06721 11.4394 3.11304 11.474C3.13877 11.4933 3.16378 11.5 3.18549 11.5C3.20392 11.5 3.22489 11.4951 3.24761 11.4809L3.24784 11.4808L6.23546 9.61753L6.5001 9.45248L6.76471 9.61757L9.75123 11.4808L9.75241 11.4816C9.79369 11.5075 9.84336 11.5066 9.88597 11.4744L9.88601 11.4743C9.93265 11.4391 9.9636 11.3691 9.94705 11.2923L11.9913 4.68315ZM11.9913 4.68315C12.0141 4.75659 11.9903 4.83104 11.9445 4.87285L11.9441 4.87322L9.32611 7.26861L9.11392 7.46276L9.17506 7.74379L9.947 11.2921L11.9913 4.68315ZM12.2816 5.24211C12.4742 5.06632 12.5477 4.78869 12.4687 4.53466L12.2816 5.24211Z" stroke="#E4E4E4"/>
</svg>
