<svg width="48" height="48" viewBox="0 0 48 48" fill="none" xmlns="http://www.w3.org/2000/svg">
<ellipse cx="24" cy="23.7577" rx="24" ry="23.7577" fill="#77ADE8"/>
<g clip-path="url(#clip0_49_23752)">
<path d="M42.3258 46.573H4.29199V11.2533C4.29199 11.0563 4.44965 10.8965 4.64417 10.8965H41.9736C42.1681 10.8965 42.3258 11.0563 42.3258 11.2533V46.573Z" fill="#FFD782"/>
<path d="M42.3267 40.1515H4.29297V45.8597H42.3267V40.1515Z" fill="#FFAF5F"/>
<path d="M42.3262 23.6787C42.1819 23.715 42.0334 23.7401 41.878 23.7401C40.8525 23.7401 40.0211 22.8978 40.0211 21.8589C40.0211 22.8978 39.1897 23.7401 38.1642 23.7401C37.1387 23.7401 36.3073 22.8978 36.3073 21.8589C36.3073 22.8978 35.476 23.7401 34.4504 23.7401C33.4249 23.7401 32.5936 22.8978 32.5936 21.8589C32.5936 22.8978 31.7622 23.7401 30.7367 23.7401C29.7112 23.7401 28.8798 22.8978 28.8798 21.8589C28.8798 22.8978 28.0484 23.7401 27.0229 23.7401C25.9974 23.7401 25.166 22.8978 25.166 21.8589C25.166 22.8978 24.3347 23.7401 23.3091 23.7401C22.2835 23.7401 21.4522 22.8978 21.4522 21.8589C21.4522 22.8978 20.6208 23.7401 19.5953 23.7401C18.5698 23.7401 17.7385 22.8978 17.7385 21.8589C17.7385 22.8978 16.9071 23.7401 15.8816 23.7401C14.8561 23.7401 14.0247 22.8978 14.0247 21.8589C14.0247 22.8978 13.1933 23.7401 12.1678 23.7401C11.1423 23.7401 10.3109 22.8978 10.3109 21.8589C10.3109 22.8978 9.47952 23.7401 8.45401 23.7401C7.42851 23.7401 6.59712 22.8978 6.59712 21.8589C6.59712 22.8978 5.76582 23.7401 4.74024 23.7401C4.58481 23.7401 4.43633 23.715 4.29199 23.6787V25.1213C4.43992 25.1421 4.58673 25.1672 4.74024 25.1672C5.42952 25.1672 6.06957 24.9498 6.59712 24.579C7.12484 24.9498 7.76481 25.1671 8.45417 25.1671C9.14345 25.1671 9.78351 24.9497 10.3111 24.5789C10.8386 24.9497 11.4787 25.1671 12.1679 25.1671C12.8572 25.1671 13.4973 24.9497 14.0248 24.5789C14.5524 24.9497 15.1924 25.1671 15.8817 25.1671C16.571 25.1671 17.2111 24.9497 17.7386 24.5789C18.2662 24.9497 18.9062 25.1671 19.5955 25.1671C20.2848 25.1671 20.9248 24.9497 21.4524 24.5789C21.9799 24.9498 22.6199 25.1671 23.3092 25.1671C23.9985 25.1671 24.6385 24.9497 25.1661 24.5789C25.6936 24.9497 26.3337 25.1671 27.023 25.1671C27.7123 25.1671 28.3523 24.9497 28.8799 24.5789C29.4074 24.9497 30.0475 25.1671 30.7367 25.1671C31.426 25.1671 32.0661 24.9497 32.5936 24.5789C33.1212 24.9497 33.7612 25.1671 34.4505 25.1671C35.1398 25.1671 35.7799 24.9497 36.3074 24.5789C36.835 24.9497 37.475 25.1671 38.1643 25.1671C38.8537 25.1671 39.4936 24.9497 40.0212 24.5789C40.5487 24.9497 41.1888 25.1671 41.8781 25.1671C42.0315 25.1671 42.1784 25.1421 42.3263 25.1212V23.6787H42.3262Z" fill="#FFAF5F"/>
<path d="M27.5355 28.0215H7.81445V42.2919H27.5355V28.0215Z" fill="#B4E1FA"/>
<path d="M38.8051 28.0215H30.3533V42.2919H38.8051V28.0215Z" fill="#B4E1FA"/>
<path d="M38.8044 28.0215H30.3525V30.1621H38.8044V28.0215Z" fill="#A0D2F0"/>
<path d="M38.8045 34.6809L33.8742 28.0213H32.4656L38.8045 36.5836V34.6809Z" fill="#DAF0FD"/>
<path d="M31.0569 28.0213H30.3527V30.8754L38.8046 42.2918V38.4863L31.0569 28.0213Z" fill="#A0D2F0"/>
<path d="M35.459 30.1618L33.8742 28.0213H32.4656L34.0503 30.1618H35.459Z" fill="#B4E1FA"/>
<path d="M25.4228 42.2918H24.0142L13.4492 28.0213H14.8579L25.4228 42.2918Z" fill="#DAF0FD"/>
<path d="M22.6049 42.2918H19.7876L9.22266 28.0213H12.04L22.6049 42.2918Z" fill="#A0D2F0"/>
<path d="M27.5355 28.0214H7.81445V30.162H27.5355V28.0214Z" fill="#A0D2F0"/>
<path d="M16.4426 30.1618L14.8579 28.0213H13.4492L15.034 30.1618H16.4426Z" fill="#B4E1FA"/>
<path d="M19.5952 23.7401C18.5697 23.7401 17.7383 22.8978 17.7383 21.8589V20.1724H21.4521V21.8589C21.4521 22.8978 20.6207 23.7401 19.5952 23.7401Z" fill="#D2555A"/>
<path d="M27.0231 23.7401C25.9976 23.7401 25.1663 22.8978 25.1663 21.8589V20.1724H28.88V21.8589C28.88 22.8978 28.0487 23.7401 27.0231 23.7401Z" fill="#D2555A"/>
<path d="M12.1684 23.7401C11.1429 23.7401 10.3115 22.8978 10.3115 21.8589V20.1724H14.0253V21.8589C14.0252 22.8978 13.1939 23.7401 12.1684 23.7401Z" fill="#D2555A"/>
<path d="M4.74068 23.7401C3.71517 23.7401 2.88379 22.8978 2.88379 21.8589V20.1724H6.59757V21.8589C6.59757 22.8978 5.76618 23.7401 4.74068 23.7401Z" fill="#D2555A"/>
<path d="M34.4505 23.7401C33.425 23.7401 32.5936 22.8978 32.5936 21.8589V20.1724H36.3074V21.8589C36.3074 22.8978 35.4761 23.7401 34.4505 23.7401Z" fill="#D2555A"/>
<path d="M15.8823 23.7401C14.8568 23.7401 14.0254 22.8978 14.0254 21.8589V20.1724H17.7392V21.8589C17.7392 22.8978 16.9079 23.7401 15.8823 23.7401Z" fill="#C7CFE2"/>
<path d="M30.7368 23.7401C29.7113 23.7401 28.8799 22.8978 28.8799 21.8589V20.1724H32.5937V21.8589C32.5937 22.8978 31.7623 23.7401 30.7368 23.7401Z" fill="#C7CFE2"/>
<path d="M41.8784 23.7401C40.8529 23.7401 40.0215 22.8978 40.0215 21.8589V20.1724H43.7353V21.8589C43.7353 22.8978 42.9039 23.7401 41.8784 23.7401Z" fill="#D2555A"/>
<path d="M38.1643 23.7401C37.1388 23.7401 36.3074 22.8978 36.3074 21.8589V20.1724H40.0211V21.8589C40.0211 22.8978 39.1897 23.7401 38.1643 23.7401Z" fill="#C7CFE2"/>
<path d="M8.45442 23.7401C7.42892 23.7401 6.59753 22.8978 6.59753 21.8589V20.1724H10.3113V21.8589C10.3113 22.8978 9.47993 23.7401 8.45442 23.7401Z" fill="#C7CFE2"/>
<path d="M23.3089 23.7401C22.2834 23.7401 21.452 22.8978 21.452 21.8589V20.1724H25.1658V21.8589C25.1658 22.8978 24.3344 23.7401 23.3089 23.7401Z" fill="#C7CFE2"/>
<path d="M21.452 20.1724H17.7383L18.1225 14.4642H21.5801L21.452 20.1724Z" fill="#FF6464"/>
<path d="M28.8799 20.1724H25.1662L25.0381 14.4642H28.4957L28.8799 20.1724Z" fill="#FF6464"/>
<path d="M14.0252 20.1724H10.3115L11.2079 14.4642H14.6655L14.0252 20.1724Z" fill="#FF6464"/>
<path d="M6.59757 20.1724H2.88379L4.29243 14.4642H7.75009L6.59757 20.1724Z" fill="#FF6464"/>
<path d="M36.3071 20.1724H32.5934L31.9531 14.4642H35.4107L36.3071 20.1724Z" fill="#FF6464"/>
<path d="M17.7392 20.1725H14.0254L14.6657 14.4642H18.1233L17.7392 20.1725Z" fill="#EFF2FA"/>
<path d="M32.5942 20.1725H28.8804L28.4962 14.4642H31.9539L32.5942 20.1725Z" fill="#EFF2FA"/>
<path d="M43.7345 20.1725H40.0207L38.8682 14.4642H42.3258L43.7345 20.1725Z" fill="#FF6464"/>
<path d="M40.021 20.1724H36.3073L35.4109 14.4642H38.8685L40.021 20.1724Z" fill="#EFF2FA"/>
<path d="M10.3112 20.1724H6.59753L7.75006 14.4642H11.2076L10.3112 20.1724Z" fill="#EFF2FA"/>
<path d="M25.1658 20.1724H21.452L21.5802 14.4642H25.0377L25.1658 20.1724Z" fill="#EFF2FA"/>
<path d="M26.8306 28.7348V41.5783H8.5181V28.7348H26.8306ZM27.535 27.3077H7.81374C7.42477 27.3077 7.10938 27.6273 7.10938 28.0213V42.2919C7.10938 42.6859 7.42477 43.0054 7.81374 43.0054H27.5349C27.9239 43.0054 28.2393 42.6859 28.2393 42.2919V28.0213C28.2393 27.6273 27.924 27.3077 27.535 27.3077Z" fill="#8F96AC"/>
<path d="M38.8038 27.3077H30.3518C29.9629 27.3077 29.6475 27.6273 29.6475 28.0213V45.8595H39.508V28.0213C39.508 27.6273 39.1927 27.3077 38.8038 27.3077ZM38.0994 41.5783H31.0561V28.7348H38.0994V41.5783Z" fill="#8F96AC"/>
<path d="M34.5789 14.4642H12.0405C11.2625 14.4642 10.6318 13.8253 10.6318 13.0371V8.75602C10.6318 7.96785 11.2625 7.32898 12.0405 7.32898H34.579C35.357 7.32898 35.9877 7.96785 35.9877 8.75602V13.0372C35.9877 13.8253 35.357 14.4642 34.5789 14.4642Z" fill="#8891A9"/>
<path d="M34.2265 13.0371H12.3922C12.1977 13.0371 12.04 12.8774 12.04 12.6804V9.1128C12.04 8.91574 12.1977 8.75602 12.3922 8.75602H34.2264C34.4209 8.75602 34.5786 8.91574 34.5786 9.1128V12.6804C34.5786 12.8774 34.4209 13.0371 34.2265 13.0371Z" fill="#FFD782"/>
<path d="M12.3922 13.0371H34.2264C34.4209 13.0371 34.5786 12.8774 34.5786 12.6804V11.2533C34.5786 11.4504 34.4209 11.6101 34.2264 11.6101H12.3922C12.1977 11.6101 12.04 11.4504 12.04 11.2533V12.6804C12.0401 12.8774 12.1978 13.0371 12.3922 13.0371Z" fill="#FFAF5F"/>
<path d="M43.3827 47.2865H3.23597C3.04145 47.2865 2.88379 47.1268 2.88379 46.9297V46.2161C2.88379 46.0191 3.04145 45.8594 3.23597 45.8594H43.3827C43.5772 45.8594 43.7349 46.0191 43.7349 46.2161V46.9297C43.7349 47.1268 43.5772 47.2865 43.3827 47.2865Z" fill="#8F96AC"/>
</g>
<defs>
<clipPath id="clip0_49_23752">
<rect width="40.8511" height="41.3846" fill="white" transform="translate(2.88379 6.61542)"/>
</clipPath>
</defs>
</svg>
