<svg width="24" height="24" viewBox="0 0 24 24" fill="none" xmlns="http://www.w3.org/2000/svg">
<g clip-path="url(#clip0_311_434)">
<path d="M12 0C9.68175 0 7.79564 1.88611 7.79564 4.20436V12.4674C7.79564 14.7854 9.68175 16.6715 12 16.6715C14.3182 16.6715 16.2044 14.7985 16.2044 12.4963V4.20436C16.2044 1.88611 14.3182 0 12 0ZM14.4523 12.4961C14.4523 13.8322 13.3521 14.9194 12 14.9194C10.6479 14.9194 9.54745 13.8195 9.54745 12.4672V4.20436C9.54745 2.85197 10.6476 1.75181 12 1.75181C13.3524 1.75181 14.4525 2.85197 14.4523 4.20436V12.4961Z" fill="white"/>
<path d="M12.8759 19.1825H11.1241V23.1241H12.8759V19.1825Z" fill="white"/>
<path d="M14.3066 22.2482H9.69343C9.20963 22.2482 8.81752 22.6403 8.81752 23.1241C8.81752 23.6079 9.20963 24 9.69343 24H14.3066C14.7904 24 15.1825 23.6079 15.1825 23.1241C15.1825 22.6403 14.7904 22.2482 14.3066 22.2482Z" fill="white"/>
<path d="M18.6277 11.0073C18.1439 11.0073 17.7518 11.3994 17.7518 11.8832V12.5839C17.7518 15.7553 15.1714 18.3358 12 18.3358C8.82834 18.3358 6.24815 15.7554 6.24815 12.5839V11.8832C6.24815 11.3994 5.85604 11.0073 5.37224 11.0073C4.88845 11.0073 4.49634 11.3994 4.49634 11.8832V12.5839C4.49634 16.7214 7.86248 20.0876 12 20.0876C16.1375 20.0876 19.5037 16.7214 19.5037 12.5839V11.8832C19.5037 11.3994 19.1115 11.0073 18.6277 11.0073Z" fill="white"/>
</g>
<defs>
<clipPath id="clip0_311_434">
<rect width="24" height="24" fill="white"/>
</clipPath>
</defs>
</svg>
